<?xml version="1.0" encoding="UTF-8"?>
<!DOCTYPE svg PUBLIC "-//W3C//DTD SVG 1.1//EN" "http://www.w3.org/Graphics/SVG/1.1/DTD/svg11.dtd">
<svg xmlns="http://www.w3.org/2000/svg" version="1.1" width="200px" height="200px" style="shape-rendering:geometricPrecision; text-rendering:geometricPrecision; image-rendering:optimizeQuality; fill-rule:evenodd; clip-rule:evenodd" xmlns:xlink="http://www.w3.org/1999/xlink">
<g><path style="opacity:1" fill="#fefefe" d="M -0.5,-0.5 C 66.1667,-0.5 132.833,-0.5 199.5,-0.5C 199.5,66.1667 199.5,132.833 199.5,199.5C 132.833,199.5 66.1667,199.5 -0.5,199.5C -0.5,132.833 -0.5,66.1667 -0.5,-0.5 Z"/></g>
<g><path style="opacity:1" fill="#393838" d="M 119.5,35.5 C 119.672,34.5084 119.338,33.8417 118.5,33.5C 122.515,19.684 117.348,13.0173 103,13.5C 97.5106,12.9955 92.844,14.6622 89,18.5C 88.5034,20.8098 88.3367,23.1432 88.5,25.5C 91.3443,24.9421 94.1776,24.2755 97,23.5C 99.9649,23.4384 100.798,24.6051 99.5,27C 90.3528,26.4051 82.5195,29.2384 76,35.5C 75.1376,37.087 74.4709,38.7536 74,40.5C 73.3653,38.3646 73.6986,36.3646 75,34.5C 78.3866,31.4465 82.0533,28.7798 86,26.5C 86.4213,15.7636 92.088,10.4303 103,10.5C 120.075,11.3852 125.575,19.7185 119.5,35.5 Z"/></g>
<g><path style="opacity:1" fill="#fafafa" d="M 118.5,46.5 C 119.784,54.075 121.951,61.4083 125,68.5C 125.998,73.8199 126.831,79.1532 127.5,84.5C 127.035,95.896 124.701,106.896 120.5,117.5C 112.901,132.504 109.901,148.504 111.5,165.5C 111.19,166.738 110.69,166.738 110,165.5C 100.833,146.495 97.4992,126.495 100,105.5C 103.988,84.2065 109.988,63.5399 118,43.5C 118.483,44.448 118.649,45.448 118.5,46.5 Z"/></g>
<g><path style="opacity:1" fill="#242122" d="M 118.5,33.5 C 119.338,33.8417 119.672,34.5084 119.5,35.5C 119.5,38.1667 119.5,40.8333 119.5,43.5C 119.737,44.791 119.404,45.791 118.5,46.5C 118.649,45.448 118.483,44.448 118,43.5C 109.988,63.5399 103.988,84.2065 100,105.5C 97.4992,126.495 100.833,146.495 110,165.5C 110.69,166.738 111.19,166.738 111.5,165.5C 112.167,164.167 112.833,162.833 113.5,161.5C 113.536,165.979 114.369,170.312 116,174.5C 118.98,178.314 122.146,181.981 125.5,185.5C 123.036,187.245 120.37,188.079 117.5,188C 104.94,177.358 95.4402,164.525 89,149.5C 87.5921,145.943 86.5921,142.276 86,138.5C 85.1558,130.104 84.1558,121.77 83,113.5C 79.0854,111.711 76.7521,113.044 76,117.5C 74.9599,123.783 74.1266,130.116 73.5,136.5C 70.9555,133.725 69.4555,130.391 69,126.5C 66.025,113.017 67.3583,100.017 73,87.5C 84.1265,70.0324 97.7932,54.6991 114,41.5C 115.765,38.9679 117.265,36.3013 118.5,33.5 Z"/></g>
<g><path style="opacity:1" fill="#393738" d="M 119.5,43.5 C 122.036,54.9638 125.536,66.2972 130,77.5C 131.594,83.6206 131.761,89.6206 130.5,95.5C 130.665,92.1501 130.498,88.8168 130,85.5C 129.667,85.8333 129.333,86.1667 129,86.5C 128.722,85.5842 128.222,84.9175 127.5,84.5C 126.831,79.1532 125.998,73.8199 125,68.5C 121.951,61.4083 119.784,54.075 118.5,46.5C 119.404,45.791 119.737,44.791 119.5,43.5 Z"/></g>
<g><path style="opacity:1" fill="#272626" d="M 127.5,84.5 C 128.222,84.9175 128.722,85.5842 129,86.5C 129.333,86.1667 129.667,85.8333 130,85.5C 130.498,88.8168 130.665,92.1501 130.5,95.5C 128.473,103.588 125.473,111.255 121.5,118.5C 120.833,118.5 120.5,118.167 120.5,117.5C 124.701,106.896 127.035,95.896 127.5,84.5 Z"/></g>
<g><path style="opacity:1" fill="#5d5c5c" d="M 120.5,117.5 C 120.5,118.167 120.833,118.5 121.5,118.5C 114.64,131.983 111.974,146.316 113.5,161.5C 112.833,162.833 112.167,164.167 111.5,165.5C 109.901,148.504 112.901,132.504 120.5,117.5 Z"/></g>
</svg>
