<?xml version="1.0" encoding="UTF-8" standalone="no"?>
<!-- Created with Inkscape (http://www.inkscape.org/) -->

<svg
   xmlns:dc="http://purl.org/dc/elements/1.1/"
   xmlns:cc="http://creativecommons.org/ns#"
   xmlns:rdf="http://www.w3.org/1999/02/22-rdf-syntax-ns#"
   xmlns:svg="http://www.w3.org/2000/svg"
   xmlns="http://www.w3.org/2000/svg"
   version="1.1"
   width="250"
   height="187.95929"
   viewBox="0 0 250 187.95928"
   id="svg2"
   xml:space="preserve"><title
     id="title3019">Motorola</title><metadata
     id="metadata8"><rdf:RDF><cc:Work
         rdf:about=""><dc:format>image/svg+xml</dc:format><dc:type
           rdf:resource="http://purl.org/dc/dcmitype/StillImage" /><dc:title>Motorola</dc:title></cc:Work></rdf:RDF></metadata><defs
     id="defs6" /><g
     transform="matrix(0.7082153,0,0,0.7082153,-157.68837,-199.6756)"
     id="g3275"><g
       transform="matrix(1.6651243,0,0,1.6651243,310.26398,281.94007)"
       id="g3261"><path
         d="M 106.29837,53.150625 C 106.29837,82.504125 82.502875,106.3 53.149875,106.3 23.795875,106.3 0,82.504125 0,53.150625 c 0,-29.354 23.795875,-53.1495 53.149875,-53.1495 29.353,0 53.148495,23.7955 53.148495,53.1495"
         id="path14"
         style="fill:#4279bd;fill-opacity:1;fill-rule:nonzero;stroke:none" /><path
         d="m 87.2065,78.126125 -19.15425,-63.17675 -14.7705,49.32475 -0.13425,0.11575 -0.123125,-0.11575 -14.791,-49.32475 -19.150875,63.17675 3.5855,0 c 0,0 2.42675,-10.98925 6.36175,-17.55175 2.129375,-3.561 5.441875,-6.48575 9.849625,-6.40475 3.078125,0.07225 5.76325,1.785625 9.133375,6.495625 2.014625,2.829125 5.1215,10.0225 5.1215,10.0225 0,0 3.126,-7.193375 5.140125,-10.0225 3.381375,-4.71 6.044,-6.423375 9.155375,-6.495625 4.3945,-0.081 7.705,2.84375 9.812,6.40475 3.9355,6.5625 6.3745,17.55175 6.3745,17.55175 l 3.59025,0 z"
         id="path3259"
         style="fill:#ffffff;fill-opacity:1;fill-rule:nonzero;stroke:none" /></g><g
       transform="matrix(1.9694539,0,0,1.9694539,-32.474465,418.06008)"
       id="g3265"
       style="fill:#54575b;fill-opacity:1"><path
         d="m 300.815,42.753125 -7.33,0 0,2.9805 7.18,0 c 3.425,0 4.67375,1.2285 4.7175,4.692875 l -7.96375,0 c -4.90375,0.366125 -7.8325,3.13475 -7.8325,7.420875 0,4.44575 3.46,7.795375 8.05625,7.795375 4.81625,0 6.9725,-2.534625 7.74,-3.607375 l 0,2.99025 3.39875,0 0,-14.3775 c 0,-4.944375 -2.97375,-7.895 -7.96625,-7.895 m -2.545,19.90375 c -3.70375,0 -5.35875,-2.392 -5.35875,-4.75825 0,-2.918875 1.7775,-4.335875 5.45125,-4.335875 l 7.02,0 0,1.348625 c 0,3.9375 -3.1225,7.7455 -7.1125,7.7455"
         id="path16"
         style="fill:#54575b;fill-opacity:1;fill-rule:nonzero;stroke:none" /><path
         d="m 177.60125,42.20525 c -6.55125,0 -11.495,5.05075 -11.495,11.74075 0,6.667 4.94375,11.692375 11.495,11.692375 6.58125,0 11.54,-5.025375 11.54,-11.692375 0,-6.69 -4.95875,-11.74075 -11.54,-11.74075 m 0,20.42925 c -4.65625,0 -8.0425,-3.652375 -8.0425,-8.6885 0,-5.03325 3.38625,-8.684125 8.0425,-8.684125 4.68875,0 8.0875,3.650875 8.0875,8.684125 0,5.036125 -3.39875,8.6885 -8.0875,8.6885"
         id="path18"
         style="fill:#54575b;fill-opacity:1;fill-rule:nonzero;stroke:none" /><path
         d="m 219.16375,42.20525 c -6.55375,0 -11.48875,5.05075 -11.48875,11.74075 0,6.667 4.935,11.692375 11.48875,11.692375 6.58625,0 11.54,-5.025375 11.54,-11.692375 0,-6.69 -4.95375,-11.74075 -11.54,-11.74075 m 0,20.42925 c -4.65625,0 -8.0325,-3.652375 -8.0325,-8.6885 0,-5.03325 3.37625,-8.684125 8.0325,-8.684125 4.69375,0 8.09,3.650875 8.09,8.684125 0,5.036125 -3.39625,8.6885 -8.09,8.6885"
         id="path20"
         style="fill:#54575b;fill-opacity:1;fill-rule:nonzero;stroke:none" /><path
         d="m 264.32125,42.20525 c -6.55125,0 -11.49375,5.05075 -11.49375,11.74075 0,6.667 4.9425,11.692375 11.49375,11.692375 6.58125,0 11.54625,-5.025375 11.54625,-11.692375 0,-6.69 -4.965,-11.74075 -11.54625,-11.74075 m 0,20.42925 c -4.65375,0 -8.04125,-3.652375 -8.04125,-8.6885 0,-5.03325 3.3875,-8.684125 8.04125,-8.684125 4.6875,0 8.09375,3.650875 8.09375,8.684125 0,5.036125 -3.40625,8.6885 -8.09375,8.6885"
         id="path22"
         style="fill:#54575b;fill-opacity:1;fill-rule:nonzero;stroke:none" /><path
         d="m 281.20375,65.043125 3.39404,0 0,-31.438 -3.39404,0 0,31.438 z"
         id="path24"
         style="fill:#54575b;fill-opacity:1;fill-rule:nonzero;stroke:none" /><path
         d="M 250.28125,43.240375 C 249.87875,43.05 248.47125,42.41575 247.1075,42.4055 l -0.13375,-0.0025 c -3.41125,0 -5.84375,1.131375 -7.25375,3.369125 l 0,-2.96775 -3.40875,0 0,22.23875 3.40875,0 0,-14.183125 c 0.7125,-3.38125 4.27375,-5.087875 6.3675,-5.087875 0.0575,0 0.10875,0 0.1675,0.0025 1.32875,0.02875 2.2775,0.295375 2.8425,0.515625 l 0.17875,0.06788 1.15875,-3.04 -0.15375,-0.07775"
         id="path26"
         style="fill:#54575b;fill-opacity:1;fill-rule:nonzero;stroke:none" /><path
         d="m 203.49375,45.70475 0,-2.90275 -4.1625,0 0,-9.225125 -3.3975,0 0,9.225125 -3.6875,0 0,2.90275 3.6875,0 0,14.6865 c 0,3.266625 1.7125,4.84875 5.24375,4.84875 0.65625,0 1.55875,-0.024 2.14125,-0.066 l 0.175,-0.0098 0,-2.90625 -0.19875,0.0087 c -0.2375,0.01025 -0.7375,0.01912 -1.025,0.01912 -1.7725,0 -2.93875,-0.13575 -2.93875,-1.943375 l 0,-14.63775 4.1625,0"
         id="path28"
         style="fill:#54575b;fill-opacity:1;fill-rule:nonzero;stroke:none" /><path
         d="m 152.9625,42.177875 c -2.815,0 -5.1425,1.15 -7.2925,3.563 -1.19625,-2.29825 -3.47,-3.563 -6.61375,-3.563 -2.315,0 -4.29,0.76325 -6.1075,2.364375 l 0,-1.74025 -3.405,0 0,22.241125 3.405,0 0,-16.835875 c 1.825,-1.8995 3.705,-2.827625 5.72375,-2.827625 2.91,0 4.64875,1.869125 4.64875,5.001875 l 0,14.627 3.34375,0.0097 0,-14.715375 c 0,-0.617625 -0.0462,-1.199625 -0.11875,-1.745125 1.92625,-2.13025 3.90375,-3.178125 6.03625,-3.178125 2.9175,0 4.65375,1.869125 4.65375,5.001875 l 0,14.627 3.3375,0.0097 0,-14.715375 c 0,-5.161125 -2.7725,-8.125 -7.61125,-8.125"
         id="path30"
         style="fill:#54575b;fill-opacity:1;fill-rule:nonzero;stroke:none" /></g></g></svg>