<svg version="1.2" xmlns="http://www.w3.org/2000/svg" viewBox="0 0 1208 1538" width="1208" height="1538">
	<title>Philips_shield_(2013)-svg</title>
	<style>
		.s0 { fill: #0b5ed8 } 
		.s1 { fill: #ffffff } 
	</style>
	<g id="layer1">
		<path id="path3084" class="s0" d="m1 33c0 0 248-33 606.6-33 360.9 0 600.4 33 600.4 33v892.9c0 350.8-272.5 611.4-603.5 611.4-333.7 0-603.5-264.1-603.5-603.6z"/>
		<path id="path3082" fill-rule="evenodd" class="s1" d="m444 330.5h-56.1v-72.3h-58.4v72.3h-56.1v-183.8h56.1v73h58.4v-73h56.1zm248.9-37l-8.4 37h-101.5v-183.9h56.1v146.9zm-207.4-146.9h56.1v183.9h-56.1zm227.4 0h56.1v183.8h-56.1zm421.1 126.1c0 46.2-38.4 61.5-85.3 61.5-18.4 0-41.5-3-58.4-9.2l-6.2-42.3c16.9 8.5 45.4 14.6 63.8 14.6 20.8 0 29.2-6.1 29.2-17.7 0-30-87.6-16.9-87.6-81.5 0-37.5 30.8-55.4 76.1-55.4 23.8 0 36.9 2.3 51.5 5.4l4.6 40c-13.1-5.4-32.3-9.2-50-9.2-16.1 0-26.1 4.6-26.1 14.6 0 29.2 88.4 17.7 88.4 79.2zm-266.6 13.9v43.8h-56.1v-183.8c19.2-2.3 46.1-3.9 68.4-3.9 57.6 0 92.9 18.5 92.9 70 0 46.9-33 73.9-85.2 73.9zm9.2-109.2c-2.9 0-3.6 0-6.9 0.1v76h6.9c29.2 0 40.7-16.2 40.7-40 0-23.1-13.1-36.1-40.7-36.1zm-730.8 109.2v43.8h-56v-183.8c19.2-2.3 46.1-3.9 68.4-3.9 57.6 0 92.9 18.5 92.9 70 0 46.9-33 73.9-85.3 73.9zm9.3-109.2c-2.9 0-3.5 0-6.7 0.1v76h6.7c29.2 0 40.7-16.2 40.7-40 0-23.1-13.1-36.1-40.7-36.1z"/>
		<path id="path3086" class="s1" d="m84.7 998.4c-1.6-14.7-3.3-44.8-3.6-64.5 45.1 23.3 112.7 51 212.8 51 242.9 0 352.6-182 591.6-182 98.3 0 181.5 28.3 237.7 63.2 2.5 21.7 3.2 43.5 4.1 65.2-64.1-31.5-130.6-50.2-212.7-50.2-245.7 0-345.9 180.7-592.2 180.7-95.2 0-174.3-24.4-237.7-63.4z"/>
		<path id="path3088" class="s1" d="m85.8 868.1c8.3-72.4 28.7-126.4 61.2-187.6l108.6 13.9c20.6 2.7 35.5 7 45.5 18 9.6 10.8 13.7 17.2 19.5 57.6l16.2 126.8c0 0-33 5.8-74.2 6.2-71.2 0-135.7-18.3-176.8-34.9z"/>
		<path id="path3090" class="s1" d="m157.9 661.7c38.4-63.3 95.4-126.1 173.7-173.5l-13 97.9c-2.9 21.1-5.1 31.3-16.3 44.4-9.5 10.5-25.3 14.6-43.8 18z"/>
		<path id="path3092" class="s1" d="m357.2 539.1l-7.4-62.1c32.2-18.2 72.7-36.3 119.1-48l-9.1 69.5c-3.9 21.9-13.3 28.7-36.6 32.3z"/>
		<path id="path3094" class="s1" d="m468.5 654.7l-57.7-8.4c-27.3-5.7-42.6-24.8-46.6-59l-5.7-41.2 68.5 9.6c22.6 2.6 30.7 13.6 33.7 37.8z"/>
		<path id="path3096" class="s1" d="m346.9 894.8l13.8-118.3c8.4-58.8 16.1-73.9 65.7-81.8l140.2-18.5v-9.4l-90-11 8.9-68.5c2.2-19.9 11.5-29 36.6-32.1l73-9.8v-5.4l-77.8-10.1c-22.3-3.6-29.4-13-32.1-33.5l-9.1-69.1c0 0 53.8-16.2 128.2-16.2 289.3 0 461.1 218.6 503.1 378.6-44-28.5-133.7-69.7-241.5-69.7-218.1 0-328.8 138.9-519 174.8z"/>
		<path id="path3100" class="s1" d="m604.2 1457.1c-221.1 0-431-137.9-503.6-381.2 64 40.4 155.9 70 244.6 70 230.9 0 342.8-146.9 515.7-177.6l-18.2 143.1c-6.4 36.9-16.6 53-60.9 60.3l-141.9 18.1v9.7l133.1 16.9c44.2 4.8 64.8 19.4 69.5 62.9l14.9 112.2c-43.7 26.1-136.7 65.6-253.2 65.6z"/>
		<path id="path3102" class="s1" d="m874.8 1382.3l11.1-89.5c7.4-50.5 15.5-68.8 64.5-75l101.8-13.2c-51.5 83.4-108.9 133.5-177.4 177.7z"/>
		<path id="path3104" class="s1" d="m1062.6 1186.8l-102.8-13.5c-53-6.2-66.1-19.2-72.9-70.6l-17.4-135.8c0 0 35.1-6 75.2-6 59.7 0 141.1 19.3 179 36-8.9 63.3-20.7 114.7-61.1 189.9z"/>
		<path id="path3098" class="s0" d="m725.9 1364.5c-2-18.2-9-27.1-28.2-29.5l-58-7.5v-4.3l60.3-8.2c16.1-2.6 21.9-8.6 25.1-23.4l7.9-61.5h4.5l7.7 60.4c2.5 14 8.7 22.4 24.7 24.9l60.7 7.8v4.3l-56.4 7.2c-16.6 3-25.7 4.8-29.3 28.4l-7.6 57.7h-4.3z"/>
	</g>
</svg>