<?xml version="1.0" encoding="utf-8"?>
<!-- Generator: Adobe Illustrator 19.2.1, SVG Export Plug-In . SVG Version: 6.00 Build 0)  -->
<svg version="1.1" id="layer" xmlns="http://www.w3.org/2000/svg" xmlns:xlink="http://www.w3.org/1999/xlink" x="0px" y="0px"
	 viewBox="0 0 652 652" style="enable-background:new 0 0 652 652;" xml:space="preserve">
<style type="text/css">
	.st0{fill:#EE6C00;}
	.st1{fill:#009EA8;}
</style>
<g>
	<path class="st0" d="M601.3,332.4c2.3,2.3,5.3,3.5,8.4,3.5c3,0,6.1-1.1,8.4-3.5c2.3-2.3,3.5-5.4,3.5-8.4c0-3-1.2-6.1-3.5-8.4
		c-2.3-2.3-5.3-3.5-8.4-3.5c-3,0-6.1,1.2-8.4,3.5c-2.3,2.3-3.5,5.3-3.5,8.4C597.9,327.1,599,330.1,601.3,332.4"/>
	<path class="st0" d="M581.4,352.3c1.8,1.8,4.1,2.7,6.4,2.7c2.3,0,4.7-0.9,6.4-2.7c1.8-1.8,2.7-4.1,2.7-6.4c0-2.3-0.9-4.7-2.7-6.4
		c-1.8-1.8-4.1-2.7-6.4-2.7c-2.3,0-4.7,0.9-6.4,2.7c-1.8,1.8-2.7,4.1-2.7,6.4C578.8,348.2,579.6,350.5,581.4,352.3"/>
	<path class="st0" d="M581.4,308.7c1.8,1.8,4.1,2.7,6.4,2.7c2.3,0,4.7-0.9,6.4-2.7c1.8-1.8,2.7-4.1,2.7-6.4c0-2.3-0.9-4.7-2.7-6.4
		c-1.8-1.8-4.1-2.7-6.4-2.7c-2.3,0-4.7,0.9-6.4,2.7c-1.8,1.8-2.7,4.1-2.7,6.4C578.8,304.6,579.7,306.9,581.4,308.7"/>
	<path class="st0" d="M561.1,372.7c1.4,1.4,3.2,2.1,5,2.1s3.6-0.7,5-2.1c1.3-1.4,2.1-3.2,2.1-5s-0.7-3.6-2.1-5
		c-1.4-1.3-3.2-2.1-5-2.1s-3.6,0.7-5,2.1c-1.4,1.4-2.1,3.2-2.1,5S559.7,371.3,561.1,372.7"/>
	<path class="st0" d="M561.1,329c1.4,1.4,3.2,2.1,5,2.1s3.6-0.7,5-2.1c1.3-1.4,2.1-3.2,2.1-5s-0.7-3.6-2.1-5c-1.4-1.3-3.2-2.1-5-2.1
		s-3.6,0.7-5,2.1c-1.4,1.4-2.1,3.2-2.1,5S559.7,327.7,561.1,329"/>
	<path class="st0" d="M561.1,285.4c1.4,1.4,3.2,2.1,5,2.1s3.6-0.7,5-2.1c1.3-1.4,2.1-3.2,2.1-5s-0.7-3.6-2.1-5
		c-1.4-1.3-3.2-2.1-5-2.1s-3.6,0.7-5,2.1c-1.4,1.4-2.1,3.2-2.1,5S559.8,284,561.1,285.4"/>
	<path class="st0" d="M540.4,349.7c1.1,1.1,2.4,1.6,3.8,1.6s2.8-0.5,3.8-1.6c1-1.1,1.6-2.4,1.6-3.8s-0.5-2.8-1.6-3.8
		c-1.1-1-2.5-1.6-3.8-1.6s-2.8,0.5-3.8,1.6c-1.1,1.1-1.6,2.5-1.6,3.8S539.4,348.7,540.4,349.7"/>
	<path class="st0" d="M540.5,306.1c1.1,1.1,2.4,1.6,3.8,1.6s2.8-0.5,3.8-1.6c1-1.1,1.6-2.4,1.6-3.8s-0.5-2.8-1.6-3.8
		c-1.1-1-2.5-1.6-3.8-1.6s-2.8,0.5-3.8,1.6c-1.1,1.1-1.6,2.5-1.6,3.8S539.4,305,540.5,306.1"/>
	<path class="st0" d="M519.5,327c0.8,0.8,1.9,1.2,2.9,1.2c1.1,0,2.1-0.4,2.9-1.2c0.8-0.8,1.2-1.9,1.2-2.9c0-1.1-0.4-2.1-1.2-2.9
		c-0.8-0.8-1.9-1.2-2.9-1.2c-1.1,0-2.1,0.4-2.9,1.2c-0.8,0.8-1.2,1.9-1.2,2.9C518.3,325.2,518.7,326.2,519.5,327"/>
	<path class="st1" d="M170.6,302.5v-10.3c5.8,1.8,11,2.8,15.5,2.8c6.2,0,9.3-1.6,9.3-4.9c0-1.2-0.5-2.3-1.3-3.1
		c-0.9-0.9-3.3-2.1-7.1-3.7c-6.8-2.8-11.3-5.2-13.4-7.2c-2.7-2.6-4-5.9-4-9.9c0-5.1,2-9.1,5.9-11.7c3.9-2.7,8.9-4,15.1-4
		c3.4,0,8.4,0.6,14.9,1.9v9.8c-4.8-1.9-9.3-2.9-13.4-2.9c-5.8,0-8.7,1.6-8.7,4.8c0,1.2,0.6,2.2,1.8,2.9c1,0.6,3.7,1.9,8.1,3.9
		c6.3,2.8,10.5,5.2,12.6,7.3c2.5,2.5,3.8,5.7,3.8,9.6c0,5.6-2.4,9.9-7.3,12.9c-4,2.4-9.1,3.6-15.4,3.6
		C181.3,304.4,176,303.8,170.6,302.5"/>
	<polygon class="st1" points="217.5,303.4 224.8,303.4 232,303.4 232,277.4 232,251.5 224.8,251.5 217.5,251.5 217.5,277.4 	"/>
	<polygon class="st1" points="245.3,251.5 245.3,303.3 283.1,303.3 283.1,293.4 259.3,293.4 259.3,281.1 279.4,281.1 279.4,272.6 
		259.3,272.6 259.3,260.9 282.5,260.9 282.5,251.5 	"/>
	<polygon class="st1" points="337.7,251.5 324.3,284.7 311.3,251.5 292.5,251.5 292.5,303.3 302.7,303.3 302.7,266.7 317.6,303.9 
		326.6,303.9 341.8,266.7 341.8,303.3 355.6,303.3 355.6,251.5 	"/>
	<polygon class="st1" points="368.8,251.5 368.8,303.3 406.6,303.3 406.6,293.4 382.8,293.4 382.8,281.1 403,281.1 403,272.6 
		382.8,272.6 382.8,260.9 406,260.9 406,251.5 	"/>
	<polygon class="st1" points="450.7,251.5 450.7,286.2 432.9,251.5 416.1,251.5 416.1,303.3 426.3,303.3 426.3,268.2 444.6,303.3 
		460.9,303.3 460.9,251.5 	"/>
	<path class="st1" d="M471.2,302.5v-10.3c5.8,1.8,10.9,2.8,15.5,2.8c6.2,0,9.3-1.6,9.3-4.9c0-1.2-0.4-2.3-1.3-3.1
		c-0.9-0.9-3.3-2.1-7.1-3.7c-6.8-2.8-11.3-5.2-13.3-7.2c-2.7-2.6-4-5.9-4-9.9c0-5.1,2-9,5.9-11.7c3.9-2.7,8.9-4,15.1-4
		c3.5,0,8,0.5,13.6,1.6l1.3,0.2v9.8c-4.8-1.9-9.3-2.9-13.4-2.9c-5.8,0-8.7,1.6-8.7,4.8c0,1.2,0.6,2.2,1.8,2.9
		c0.9,0.6,3.6,1.9,8.1,3.9c6.3,2.8,10.5,5.2,12.6,7.3c2.5,2.5,3.8,5.7,3.8,9.6c0,5.6-2.4,9.9-7.3,12.9c-4,2.4-9.1,3.6-15.4,3.6
		C481.9,304.4,476.6,303.8,471.2,302.5"/>
	<path class="st0" d="M380.2,356.5c0,6.2-8.3,7.6-14.1,7.8c0.3-6.2,3.5-12.2,9.6-12.2C378.4,352.1,380.2,353.8,380.2,356.5
		 M391.1,356.4c0-8.5-5.8-13-14.8-13c-14.7,0-22.3,12-22.3,25.1c0,13.4,6.1,22.9,21.3,22.9c9,0,15.3-4.1,16.4-5l-3.6-8.3
		c-2.5,1.7-6.3,3.8-11.2,3.8c-6.8,0-9.7-4.5-10.3-8.8C377.4,372.5,391.1,369.9,391.1,356.4"/>
	<path class="st0" d="M423.5,356.5c0,6.2-8.3,7.6-14.1,7.8c0.3-6.2,3.5-12.2,9.6-12.2C421.8,352.1,423.5,353.8,423.5,356.5
		 M434.4,356.4c0-8.5-5.8-13-14.8-13c-14.7,0-22.3,12-22.3,25.1c0,13.4,6.1,22.9,21.3,22.9c9,0,15.3-4.1,16.4-5l-3.6-8.3
		c-2.5,1.7-6.3,3.8-11.2,3.8c-6.8,0-9.6-4.5-10.3-8.8C420.8,372.5,434.4,369.9,434.4,356.4"/>
	<path class="st0" d="M101.1,356.5c0,6.2-8.3,7.6-14.1,7.8c0.3-6.2,3.5-12.2,9.6-12.2C99.3,352.1,101.1,353.8,101.1,356.5
		 M112,356.4c0-8.5-5.8-13-14.8-13c-14.7,0-22.3,12-22.3,25.1c0,13.4,6.1,22.9,21.3,22.9c9,0,15.3-4.1,16.4-5l-3.6-8.3
		c-2.5,1.7-6.3,3.8-11.2,3.8c-6.8,0-9.7-4.5-10.3-8.8C98.3,372.5,112,369.9,112,356.4"/>
	<polygon class="st0" points="52.6,330.5 52.6,354.2 34.3,354.2 34.3,330.5 21.6,330.5 21.6,390 34.3,390 34.3,365.4 52.6,365.4 
		52.6,390 65.3,390 65.3,330.5 	"/>
	<path class="st0" d="M147,375.5c0,3.3-2.7,6.7-7.4,6.7c-6.6,0-8.1-6.4-8.1-13.6c0-8.8,2.5-16.1,9.8-16.1c2.3,0,4.5,0.4,5.6,1V375.5
		z M160.2,390l-0.9-9v-34.3c-6.8-2.5-13.4-3.3-16.5-3.3c-15.8,0-23.7,10.3-23.7,26c0,12.1,4.4,21.9,17.3,21.9c4.8,0,9.3-1.8,12-5.9
		l0.5,0.1l0.6,4.5H160.2z"/>
	<path class="st0" d="M170.5,330.6v45.9c0,7.5,0.7,14.8,13.6,14.8c3.9,0,8.6-1.2,11.3-2.9l-2.7-8.3c-2,0.8-3.8,1.4-5.4,1.4
		c-3.3,0-4.4-2-4.4-6.9v-44.1H170.5z"/>
	<path class="st0" d="M248,390v-29.2c0-4.2,3-7.9,7.6-7.9c4.7,0,5.7,3.6,5.7,8.2V390h12.4v-30.7c0-10.6-5.1-15.9-14.5-15.9
		c-4.4,0-8.4,1.6-11.3,4.7v-17.4h-12.4V390H248z"/>
	<polygon class="st0" points="284.7,390 291,390 297.2,390 297.2,367.3 297.2,344.7 291,344.7 284.7,344.7 284.7,367.3 	"/>
	<path class="st0" d="M284.2,330.5c0,1.9,0.6,3.5,1.8,4.6c1.2,1.1,2.9,1.8,4.9,1.8c2,0,3.7-0.6,4.9-1.8c1.2-1.1,1.9-2.7,1.9-4.6
		c0-1.8-0.7-3.3-1.9-4.5c-1.2-1.2-2.9-1.9-4.9-1.9c-2,0-3.7,0.7-4.9,1.9C284.8,327.2,284.2,328.7,284.2,330.5"/>
	<path class="st0" d="M320.6,390v-29c0-4.3,3-8.1,7.8-8.1c4.7,0,5.5,3.7,5.5,8.6V390h12.4v-30.9c0-10.7-5.4-15.7-14.2-15.7
		c-6,0-10.5,2.5-13.5,6.7l-0.9-5.4h-10.3l0.8,8.4V390H320.6z"/>
	<path class="st0" d="M456.5,361.8c0.2-4.7,3-7.8,7.5-7.8c2.3,0,4.5,0.6,6.4,1.6l2.2-10.7c-2.1-1.2-4.9-1.6-7.4-1.6
		c-4.2,0-8.6,2.5-10.7,7.8l-1.2-6.4h-10.1l0.9,7.9V390h12.4V361.8z"/>
	<path class="st0" d="M506.9,347.3l0-0.1c-4-2.6-9.1-4.1-14.8-3.8c-9.2,0.5-16.4,5.9-15.9,15.4c0.5,9.5,7.4,11.7,14.2,13.3
		c3.9,1,7.1,1.7,7.3,5.2c0.2,3.4-2.2,4.8-5.5,5c-4,0.2-9.1-1.6-12.5-3.3l-3.7,8.5c2.6,1.8,9.3,4.2,17.2,3.8
		c10.3-0.5,17.1-6,16.6-16.1c-0.5-9.3-7.9-11.3-14.5-13c-4.1-1-7.1-2-7.3-5.5c-0.1-3,2.2-4.2,5.2-4.4c3-0.2,6.3,1.2,9.8,3.6
		L506.9,347.3z"/>
	<path class="st0" d="M213.6,354.4h11.7v-9.8h-11.7v-14.1h-12.4v14.1h-6.9v9.7h6.9v22.1c0,7.5,0.7,14.8,13.6,14.8
		c3.9,0,8.6-1.1,11.3-2.8l-2.7-8.3c-2,0.8-3.8,1.4-5.5,1.4c-3.3,0-4.4-2-4.4-6.9V354.4z"/>
</g>
</svg>
