<?xml version="1.0" encoding="UTF-8"?>
<!DOCTYPE svg PUBLIC "-//W3C//DTD SVG 1.1//EN" "http://www.w3.org/Graphics/SVG/1.1/DTD/svg11.dtd">
<svg xmlns="http://www.w3.org/2000/svg" version="1.1" width="220px" height="150px" style="shape-rendering:geometricPrecision; text-rendering:geometricPrecision; image-rendering:optimizeQuality; fill-rule:evenodd; clip-rule:evenodd" xmlns:xlink="http://www.w3.org/1999/xlink">
<g><path style="opacity:1" fill="#fdfdfd" d="M -0.5,-0.5 C 72.8333,-0.5 146.167,-0.5 219.5,-0.5C 219.5,49.5 219.5,99.5 219.5,149.5C 146.167,149.5 72.8333,149.5 -0.5,149.5C -0.5,99.5 -0.5,49.5 -0.5,-0.5 Z"/></g>
<g><path style="opacity:1" fill="#f3d2d6" d="M 107.5,14.5 C 108.5,14.5 109.5,14.5 110.5,14.5C 110.833,17.8333 111.167,21.1667 111.5,24.5C 110.25,24.4226 109.417,23.756 109,22.5C 108.692,23.3081 108.192,23.9747 107.5,24.5C 106.516,21.5719 106.183,18.5719 106.5,15.5C 107.167,15.5 107.5,15.1667 107.5,14.5 Z"/></g>
<g><path style="opacity:1" fill="#c04a45" d="M 94.5,17.5 C 93.791,18.404 92.791,18.7373 91.5,18.5C 91.9628,21.221 92.6295,23.8877 93.5,26.5C 92.8333,26.5 92.1667,26.5 91.5,26.5C 91.2469,21.5578 88.9136,19.8911 84.5,21.5C 87.0282,18.5816 90.3615,17.2483 94.5,17.5 Z"/></g>
<g><path style="opacity:1" fill="#a94b4a" d="M 106.5,15.5 C 106.183,18.5719 106.516,21.5719 107.5,24.5C 108.192,23.9747 108.692,23.3081 109,22.5C 109.417,23.756 110.25,24.4226 111.5,24.5C 109.052,25.4731 106.385,25.8064 103.5,25.5C 104.278,24.8444 104.944,24.0111 105.5,23C 105.167,22.5 104.833,22 104.5,21.5C 102.915,24.2724 101.915,24.1057 101.5,21C 101.318,18.6962 101.984,18.1962 103.5,19.5C 104.298,19.0431 104.631,18.3764 104.5,17.5C 105.167,16.8333 105.833,16.1667 106.5,15.5 Z"/></g>
<g><path style="opacity:1" fill="#f7d4ce" d="M 104.5,17.5 C 104.631,18.3764 104.298,19.0431 103.5,19.5C 101.984,18.1962 101.318,18.6962 101.5,21C 101.915,24.1057 102.915,24.2724 104.5,21.5C 104.833,22 105.167,22.5 105.5,23C 104.944,24.0111 104.278,24.8444 103.5,25.5C 102.178,25.67 101.011,25.3366 100,24.5C 99.5604,22.1341 99.0604,19.8008 98.5,17.5C 100.551,14.8529 102.551,14.8529 104.5,17.5 Z"/></g>
<g><path style="opacity:1" fill="#e8c8bf" d="M 96.5,17.5 C 97.6336,20.3704 98.3003,23.3704 98.5,26.5C 96.6656,27.494 94.9989,27.494 93.5,26.5C 92.6295,23.8877 91.9628,21.221 91.5,18.5C 92.791,18.7373 93.791,18.404 94.5,17.5C 95.3957,16.4937 96.0623,16.4937 96.5,17.5 Z"/></g>
<g><path style="opacity:1" fill="#f0d7d1" d="M 91.5,26.5 C 91.573,28.0269 90.9063,29.0269 89.5,29.5C 86.361,27.915 84.6944,25.2483 84.5,21.5C 88.9136,19.8911 91.2469,21.5578 91.5,26.5 Z"/></g>
<g><path style="opacity:1" fill="#dc231a" d="M 131.5,13.5 C 132.007,14.8589 133.007,15.8589 134.5,16.5C 133.667,16.8333 132.833,17.1667 132,17.5C 130,16.8333 128,16.1667 126,15.5C 124.93,15.528 124.097,15.8614 123.5,16.5C 123.5,17.1667 123.167,17.5 122.5,17.5C 122.167,17.5 121.833,17.5 121.5,17.5C 121.179,15.9519 120.179,15.2852 118.5,15.5C 114.95,13.3268 111.283,12.9935 107.5,14.5C 107.5,15.1667 107.167,15.5 106.5,15.5C 105.833,16.1667 105.167,16.8333 104.5,17.5C 102.551,14.8529 100.551,14.8529 98.5,17.5C 97.8333,17.5 97.1667,17.5 96.5,17.5C 96.0623,16.4937 95.3957,16.4937 94.5,17.5C 90.3615,17.2483 87.0282,18.5816 84.5,21.5C 83.8333,22.1667 83.1667,22.8333 82.5,23.5C 77.9388,23.9759 77.2721,25.9759 80.5,29.5C 82.2127,32.9683 84.2127,33.3016 86.5,30.5C 87.791,30.7373 88.791,30.404 89.5,29.5C 90.9063,29.0269 91.573,28.0269 91.5,26.5C 92.1667,26.5 92.8333,26.5 93.5,26.5C 94.9989,27.494 96.6656,27.494 98.5,26.5C 99.8016,27.8069 101.135,27.8069 102.5,26.5C 103.298,26.9569 103.631,27.6236 103.5,28.5C 100.687,29.0818 98.0204,30.0818 95.5,31.5C 93.0987,32.0488 90.7654,32.8822 88.5,34C 86.9052,36.1019 84.9052,37.6019 82.5,38.5C 81.1001,37.9002 80.1001,36.9002 79.5,35.5C 77.3401,33.1887 75.6735,30.522 74.5,27.5C 73.1451,28.1882 72.1451,29.1882 71.5,30.5C 69.9317,31.4731 68.265,31.6397 66.5,31C 68.7899,29.2228 70.4566,27.0562 71.5,24.5C 89.614,10.9244 109.614,7.25775 131.5,13.5 Z"/></g>
<g><path style="opacity:1" fill="#a54545" d="M 84.5,21.5 C 84.6944,25.2483 86.361,27.915 89.5,29.5C 88.791,30.404 87.791,30.7373 86.5,30.5C 85.6016,29.8423 84.6016,29.1757 83.5,28.5C 83.7093,27.914 84.0426,27.414 84.5,27C 81.8101,26.6655 81.1435,25.4988 82.5,23.5C 83.1667,22.8333 83.8333,22.1667 84.5,21.5 Z"/></g>
<g><path style="opacity:1" fill="#debbb2" d="M 143.5,25.5 C 142.513,27.4734 141.513,29.4734 140.5,31.5C 140.833,31.8333 141.167,32.1667 141.5,32.5C 142.182,31.7573 142.849,31.0906 143.5,30.5C 143.762,31.9778 143.429,33.3112 142.5,34.5C 140.64,33.7401 138.973,32.7401 137.5,31.5C 136.264,29.9572 134.598,28.9572 132.5,28.5C 131.858,25.2027 130.691,24.8693 129,27.5C 128.749,24.0992 129.749,21.0992 132,18.5C 132.333,19.8333 132.667,21.1667 133,22.5C 134.941,18.4463 135.775,18.7797 135.5,23.5C 137.143,23.5198 138.476,22.8532 139.5,21.5C 140.667,23.0792 142,24.4125 143.5,25.5 Z"/></g>
<g><path style="opacity:1" fill="#f3c6cb" d="M 79.5,35.5 C 75.8877,36.0032 73.221,34.3366 71.5,30.5C 72.1451,29.1882 73.1451,28.1882 74.5,27.5C 75.6735,30.522 77.3401,33.1887 79.5,35.5 Z"/></g>
<g><path style="opacity:1" fill="#fad2d0" d="M 82.5,23.5 C 81.1435,25.4988 81.8101,26.6655 84.5,27C 84.0426,27.414 83.7093,27.914 83.5,28.5C 84.6016,29.1757 85.6016,29.8423 86.5,30.5C 84.2127,33.3016 82.2127,32.9683 80.5,29.5C 77.2721,25.9759 77.9388,23.9759 82.5,23.5 Z"/></g>
<g><path style="opacity:1" fill="#cf3429" d="M 107.5,14.5 C 111.283,12.9935 114.95,13.3268 118.5,15.5C 117.945,19.0122 118.612,22.0122 120.5,24.5C 120.833,24.5 121.167,24.5 121.5,24.5C 124.532,27.25 126.699,26.5834 128,22.5C 129.568,18.0826 128.068,16.0826 123.5,16.5C 124.097,15.8614 124.93,15.528 126,15.5C 128,16.1667 130,16.8333 132,17.5C 132.833,17.1667 133.667,16.8333 134.5,16.5C 133.007,15.8589 132.007,14.8589 131.5,13.5C 139.584,15.7057 146.584,19.7057 152.5,25.5C 150.883,24.962 149.216,24.6287 147.5,24.5C 148.084,27.285 147.084,28.9517 144.5,29.5C 145.666,27.834 145.666,26.1673 144.5,24.5C 143.893,24.6236 143.56,24.9569 143.5,25.5C 142,24.4125 140.667,23.0792 139.5,21.5C 138.476,22.8532 137.143,23.5198 135.5,23.5C 135.775,18.7797 134.941,18.4463 133,22.5C 132.667,21.1667 132.333,19.8333 132,18.5C 129.749,21.0992 128.749,24.0992 129,27.5C 130.691,24.8693 131.858,25.2027 132.5,28.5C 134.598,28.9572 136.264,29.9572 137.5,31.5C 135.517,31.1568 134.183,31.8235 133.5,33.5C 129.642,31.8657 125.642,30.5323 121.5,29.5C 115.69,28.5104 109.69,28.1771 103.5,28.5C 103.631,27.6236 103.298,26.9569 102.5,26.5C 101.135,27.8069 99.8016,27.8069 98.5,26.5C 98.3003,23.3704 97.6336,20.3704 96.5,17.5C 97.1667,17.5 97.8333,17.5 98.5,17.5C 99.0604,19.8008 99.5604,22.1341 100,24.5C 101.011,25.3366 102.178,25.67 103.5,25.5C 106.385,25.8064 109.052,25.4731 111.5,24.5C 111.167,21.1667 110.833,17.8333 110.5,14.5C 109.5,14.5 108.5,14.5 107.5,14.5 Z"/></g>
<g><path style="opacity:1" fill="#fee2e0" d="M 118.5,15.5 C 120.179,15.2852 121.179,15.9519 121.5,17.5C 120.631,19.717 120.298,22.0504 120.5,24.5C 118.612,22.0122 117.945,19.0122 118.5,15.5 Z"/></g>
<g><path style="opacity:1" fill="#eecbc8" d="M 123.5,16.5 C 128.068,16.0826 129.568,18.0826 128,22.5C 126.699,26.5834 124.532,27.25 121.5,24.5C 121.674,22.139 122.007,19.8056 122.5,17.5C 123.167,17.5 123.5,17.1667 123.5,16.5 Z"/></g>
<g><path style="opacity:1" fill="#3a2725" d="M 121.5,17.5 C 121.833,17.5 122.167,17.5 122.5,17.5C 122.007,19.8056 121.674,22.139 121.5,24.5C 121.167,24.5 120.833,24.5 120.5,24.5C 120.298,22.0504 120.631,19.717 121.5,17.5 Z"/></g>
<g><path style="opacity:1" fill="#f8d9db" d="M 111.5,16.5 C 112.946,15.3871 114.613,15.2204 116.5,16C 115.875,18.8003 115.208,21.6336 114.5,24.5C 113.686,22.2338 113.186,19.9005 113,17.5C 112.617,16.944 112.117,16.6107 111.5,16.5 Z"/></g>
<g><path style="opacity:1" fill="#fde8e3" d="M 144.5,29.5 C 143.833,29.5 143.5,29.8333 143.5,30.5C 142.849,31.0906 142.182,31.7573 141.5,32.5C 141.167,32.1667 140.833,31.8333 140.5,31.5C 141.513,29.4734 142.513,27.4734 143.5,25.5C 143.56,24.9569 143.893,24.6236 144.5,24.5C 145.666,26.1673 145.666,27.834 144.5,29.5 Z"/></g>
<g><path style="opacity:1" fill="#f8f7c7" d="M 96.5,58.5 C 94.2407,59.344 93.2407,61.0107 93.5,63.5C 91.5,63.5 89.5,63.5 87.5,63.5C 87.5,64.8333 87.5,66.1667 87.5,67.5C 89.8333,67.5 92.1667,67.5 94.5,67.5C 94.6162,70.9103 92.9496,72.2436 89.5,71.5C 89.6495,72.552 89.4828,73.552 89,74.5C 86.4532,71.3706 84.9532,67.7039 84.5,63.5C 83.5344,65.396 83.2011,67.396 83.5,69.5C 82.5,69.5 81.5,69.5 80.5,69.5C 80.1165,83.3182 79.7831,96.9848 79.5,110.5C 75.4008,106.737 72.0675,102.404 69.5,97.5C 64.1297,85.217 63.1297,72.5503 66.5,59.5C 70.2417,51.4073 75.575,44.4073 82.5,38.5C 84.9052,37.6019 86.9052,36.1019 88.5,34C 90.7654,32.8822 93.0987,32.0488 95.5,31.5C 100.805,30.5555 106.139,30.5555 111.5,31.5C 111.663,33.8568 111.497,36.1902 111,38.5C 109.895,40.6013 108.729,42.6013 107.5,44.5C 108.071,46.7414 109.404,48.4081 111.5,49.5C 110.397,49.9976 109.397,50.3309 108.5,50.5C 109.33,52.1349 109.497,53.8016 109,55.5C 109.667,54.1667 110.333,54.1667 111,55.5C 109.888,52.9148 110.888,51.5814 114,51.5C 118.191,52.026 121.691,53.8593 124.5,57C 123.167,58.6373 121.834,59.4707 120.5,59.5C 122.76,61.4071 122.927,63.4071 121,65.5C 119.383,64.1487 118.216,62.482 117.5,60.5C 116.692,62.4233 116.192,64.4233 116,66.5C 114.644,65.6198 113.144,65.2865 111.5,65.5C 111.627,63.0846 111.793,60.7513 112,58.5C 111.667,58.8333 111.333,59.1667 111,59.5C 110.241,57.3651 108.741,56.0318 106.5,55.5C 105.268,56.1445 103.935,56.3112 102.5,56C 103.654,56.9138 103.487,57.7471 102,58.5C 101.25,57.8742 100.416,57.3742 99.5,57C 101.657,55.0879 103.991,53.4213 106.5,52C 102.855,51.7411 100.022,53.2411 98,56.5C 95.5728,55.433 95.0728,56.0997 96.5,58.5 Z"/></g>
<g><path style="opacity:1" fill="#9b4947" d="M 152.5,31.5 C 153.791,31.2627 154.791,31.596 155.5,32.5C 152.167,33.8333 149.833,36.1667 148.5,39.5C 147.662,39.1583 147.328,38.4916 147.5,37.5C 149.177,35.4602 150.844,33.4602 152.5,31.5 Z"/></g>
<g><path style="opacity:1" fill="#f6cfc4" d="M 152.5,31.5 C 150.844,33.4602 149.177,35.4602 147.5,37.5C 146.503,37.5299 145.836,37.0299 145.5,36C 146.477,32.8725 148.477,30.7058 151.5,29.5C 152.298,29.9569 152.631,30.6236 152.5,31.5 Z"/></g>
<g><path style="opacity:1" fill="#b54840" d="M 155.5,33.5 C 157.027,33.427 158.027,34.0937 158.5,35.5C 159.167,36.5 159.833,37.5 160.5,38.5C 159.178,38.33 158.011,38.6634 157,39.5C 156.83,41.7148 156.163,43.7148 155,45.5C 154.508,44.451 154.674,43.451 155.5,42.5C 154.833,41.1667 154.167,41.1667 153.5,42.5C 152.637,43.7264 152.637,45.0597 153.5,46.5C 150.92,44.9112 149.587,42.5779 149.5,39.5C 149.783,38.7109 150.283,38.0442 151,37.5C 150.591,39.2251 150.758,40.8918 151.5,42.5C 153.194,40.1394 155.194,38.1394 157.5,36.5C 156.397,36.0024 155.397,35.6691 154.5,35.5C 154.863,34.8165 155.196,34.1499 155.5,33.5 Z"/></g>
<g><path style="opacity:1" fill="#d3332d" d="M 160.5,32.5 C 167.177,38.8554 171.51,46.5221 173.5,55.5C 172.275,56.1522 171.608,57.3189 171.5,59C 172.195,61.3786 172.195,63.5453 171.5,65.5C 170.77,63.955 169.437,63.1216 167.5,63C 170.941,62.1643 171.108,61.331 168,60.5C 164.485,60.4837 162.651,62.1504 162.5,65.5C 161.539,63.7354 161.205,61.7354 161.5,59.5C 163.55,59.0388 165.55,58.3721 167.5,57.5C 168.609,58.5896 169.609,58.5896 170.5,57.5C 170.023,56.069 169.357,54.7357 168.5,53.5C 165.537,55.3313 162.87,57.3313 160.5,59.5C 160.725,66.5338 160.392,73.5338 159.5,80.5C 159.829,74.7945 159.495,69.1278 158.5,63.5C 156.429,58.3585 154.095,53.3585 151.5,48.5C 152.833,48.5 153.5,47.8333 153.5,46.5C 157.295,47.0415 159.295,45.3748 159.5,41.5C 160.192,42.0253 160.692,42.6919 161,43.5C 162.802,41.7271 162.635,40.0605 160.5,38.5C 159.833,37.5 159.167,36.5 158.5,35.5C 159.847,36.0283 161.181,36.195 162.5,36C 161.177,35.1841 160.511,34.0174 160.5,32.5 Z"/></g>
<g><path style="opacity:1" fill="#d1352d" d="M 71.5,24.5 C 70.4566,27.0562 68.7899,29.2228 66.5,31C 68.265,31.6397 69.9317,31.4731 71.5,30.5C 73.221,34.3366 75.8877,36.0032 79.5,35.5C 80.1001,36.9002 81.1001,37.9002 82.5,38.5C 75.575,44.4073 70.2417,51.4073 66.5,59.5C 67.3635,57.1046 67.3635,54.7713 66.5,52.5C 65.9986,54.6551 64.9986,56.3218 63.5,57.5C 63.7373,58.791 63.404,59.791 62.5,60.5C 60.7393,58.6433 58.406,57.6433 55.5,57.5C 53.5323,58.1001 52.5323,59.4334 52.5,61.5C 51.8485,60.9094 51.1818,60.2427 50.5,59.5C 47.73,68.5298 46.73,77.8631 47.5,87.5C 46.3439,79.6775 46.1772,71.6775 47,63.5C 51.122,47.9148 59.2887,34.9148 71.5,24.5 Z"/></g>
<g><path style="opacity:1" fill="#f5d6cd" d="M 67.5,33.5 C 71.1803,33.5084 73.8469,35.1751 75.5,38.5C 71.7601,42.018 68.7601,41.1847 66.5,36C 66.7432,35.0979 67.0766,34.2646 67.5,33.5 Z"/></g>
<g><path style="opacity:1" fill="#fce2e2" d="M 155.5,32.5 C 155.5,32.8333 155.5,33.1667 155.5,33.5C 155.196,34.1499 154.863,34.8165 154.5,35.5C 155.397,35.6691 156.397,36.0024 157.5,36.5C 155.194,38.1394 153.194,40.1394 151.5,42.5C 150.758,40.8918 150.591,39.2251 151,37.5C 150.283,38.0442 149.783,38.7109 149.5,39.5C 149.167,39.5 148.833,39.5 148.5,39.5C 149.833,36.1667 152.167,33.8333 155.5,32.5 Z"/></g>
<g><path style="opacity:1" fill="#e0211d" d="M 152.5,25.5 C 155.764,27.0941 158.431,29.4275 160.5,32.5C 160.511,34.0174 161.177,35.1841 162.5,36C 161.181,36.195 159.847,36.0283 158.5,35.5C 158.027,34.0937 157.027,33.427 155.5,33.5C 155.5,33.1667 155.5,32.8333 155.5,32.5C 154.791,31.596 153.791,31.2627 152.5,31.5C 152.631,30.6236 152.298,29.9569 151.5,29.5C 148.477,30.7058 146.477,32.8725 145.5,36C 145.836,37.0299 146.503,37.5299 147.5,37.5C 147.328,38.4916 147.662,39.1583 148.5,39.5C 148.833,39.5 149.167,39.5 149.5,39.5C 149.587,42.5779 150.92,44.9112 153.5,46.5C 153.5,47.8333 152.833,48.5 151.5,48.5C 146.693,42.0226 140.693,37.0226 133.5,33.5C 134.183,31.8235 135.517,31.1568 137.5,31.5C 138.973,32.7401 140.64,33.7401 142.5,34.5C 143.429,33.3112 143.762,31.9778 143.5,30.5C 143.5,29.8333 143.833,29.5 144.5,29.5C 147.084,28.9517 148.084,27.285 147.5,24.5C 149.216,24.6287 150.883,24.962 152.5,25.5 Z"/></g>
<g><path style="opacity:1" fill="#fbcfc5" d="M 160.5,38.5 C 162.635,40.0605 162.802,41.7271 161,43.5C 160.692,42.6919 160.192,42.0253 159.5,41.5C 159.295,45.3748 157.295,47.0415 153.5,46.5C 152.637,45.0597 152.637,43.7264 153.5,42.5C 154.167,41.1667 154.833,41.1667 155.5,42.5C 154.674,43.451 154.508,44.451 155,45.5C 156.163,43.7148 156.83,41.7148 157,39.5C 158.011,38.6634 159.178,38.33 160.5,38.5 Z"/></g>
<g><path style="opacity:1" fill="#f2dfd6" d="M 68.5,46.5 C 66.1939,44.8606 64.1939,42.8606 62.5,40.5C 64.2483,36.5175 65.415,36.8509 66,41.5C 67.7165,40.4477 68.7165,41.1144 69,43.5C 69.8928,42.2888 70.7261,42.2888 71.5,43.5C 70.8118,44.8549 69.8118,45.8549 68.5,46.5 Z"/></g>
<g><path style="opacity:1" fill="#f9e5db" d="M 67.5,47.5 C 67.7709,49.3797 67.1042,50.713 65.5,51.5C 63.2004,50.1643 60.8671,48.831 58.5,47.5C 59.7161,46.9041 61.0494,46.7374 62.5,47C 60.7397,46.0347 60.4063,44.868 61.5,43.5C 63.7901,44.4671 65.7901,45.8004 67.5,47.5 Z"/></g>
<g><path style="opacity:1" fill="#fafcc8" d="M 121.5,29.5 C 124.579,31.4668 127.412,33.8001 130,36.5C 128.18,38.9761 127.346,41.9761 127.5,45.5C 131.187,44.0196 134.854,42.6863 138.5,41.5C 140.434,44.2716 139.767,46.1049 136.5,47C 138.441,47.7429 140.274,47.5762 142,46.5C 143.825,47.1029 145.659,47.7696 147.5,48.5C 145.984,51.6033 144.65,54.77 143.5,58C 143.833,59.1667 144.167,60.3333 144.5,61.5C 145.833,58.1667 147.167,54.8333 148.5,51.5C 150.24,52.7158 151.24,54.3825 151.5,56.5C 150.129,58.6811 149.129,61.0144 148.5,63.5C 149.5,63.5 150.5,63.5 151.5,63.5C 151.5,65.1667 151.5,66.8333 151.5,68.5C 154.309,68.5878 155.642,70.0878 155.5,73C 155.121,75.0924 154.454,77.0924 153.5,79C 153.645,79.772 153.978,80.4387 154.5,81C 153.049,80.7374 151.716,80.9041 150.5,81.5C 152.442,88.3903 150.609,94.057 145,98.5C 144.819,95.3054 144.319,92.3054 143.5,89.5C 142.833,86.5 142.167,83.5 141.5,80.5C 141.5,79.8333 141.5,79.1667 141.5,78.5C 142.502,76.9891 143.169,75.3224 143.5,73.5C 140.401,73.9077 138.067,72.741 136.5,70C 141.68,70.3341 143.68,68.1674 142.5,63.5C 140.844,65.3294 138.844,66.6628 136.5,67.5C 135.571,66.3112 135.238,64.9778 135.5,63.5C 132.708,63.5479 130.875,62.2146 130,59.5C 129.536,60.0944 129.369,60.7611 129.5,61.5C 126.515,54.531 121.181,50.531 113.5,49.5C 115.505,48.6628 116.505,47.1628 116.5,45C 115.555,42.9115 115.555,40.9115 116.5,39C 115.552,38.5172 114.552,38.3505 113.5,38.5C 113.336,35.8127 113.503,33.146 114,30.5C 116.381,29.565 118.881,29.2317 121.5,29.5 Z"/></g>
<g><path style="opacity:1" fill="#fbd8d2" d="M 165.5,49.5 C 164.778,49.0825 164.278,48.4158 164,47.5C 161.899,48.9245 159.733,50.2578 157.5,51.5C 157.167,51 156.833,50.5 156.5,50C 159.247,48.2906 161.581,46.124 163.5,43.5C 165.886,45.1277 166.553,47.1277 165.5,49.5 Z"/></g>
<g><path style="opacity:1" fill="#a85754" d="M 62.5,40.5 C 64.1939,42.8606 66.1939,44.8606 68.5,46.5C 68.5,47.1667 68.1667,47.5 67.5,47.5C 65.7901,45.8004 63.7901,44.4671 61.5,43.5C 60.4063,44.868 60.7397,46.0347 62.5,47C 61.0494,46.7374 59.7161,46.9041 58.5,47.5C 60.8671,48.831 63.2004,50.1643 65.5,51.5C 64.8333,51.5 64.5,51.8333 64.5,52.5C 61.8333,51.5 59.1667,50.5 56.5,49.5C 57.7187,45.9537 59.7187,42.9537 62.5,40.5 Z"/></g>
<g><path style="opacity:1" fill="#fcdbde" d="M 165.5,49.5 C 167.465,49.9483 167.798,50.9483 166.5,52.5C 164.358,53.6005 162.192,54.6005 160,55.5C 159.251,54.365 159.417,53.365 160.5,52.5C 162.396,51.7255 164.063,50.7255 165.5,49.5 Z"/></g>
<g><path style="opacity:1" fill="#eacac5" d="M 56.5,49.5 C 59.1667,50.5 61.8333,51.5 64.5,52.5C 64.634,54.2915 64.3007,55.9582 63.5,57.5C 60.5231,56.9292 57.6897,55.9292 55,54.5C 54.8782,52.7184 55.3782,51.0518 56.5,49.5 Z"/></g>
<g><path style="opacity:1" fill="#fddddc" d="M 161.5,59.5 C 161.167,59.5 160.833,59.5 160.5,59.5C 162.87,57.3313 165.537,55.3313 168.5,53.5C 169.357,54.7357 170.023,56.069 170.5,57.5C 169.609,58.5896 168.609,58.5896 167.5,57.5C 165.55,58.3721 163.55,59.0388 161.5,59.5 Z"/></g>
<g><path style="opacity:1" fill="#db1f17" d="M 173.5,55.5 C 175.163,57.4385 175.829,59.7718 175.5,62.5C 175.403,67.0302 175.736,71.5302 176.5,76C 176.167,77.1667 175.833,78.3333 175.5,79.5C 174.832,76.6944 174.166,74.0277 173.5,71.5C 173.5,71.1667 173.5,70.8333 173.5,70.5C 173.5,69.1667 173.5,67.8333 173.5,66.5C 172.209,66.7373 171.209,66.404 170.5,65.5C 170.833,65.5 171.167,65.5 171.5,65.5C 172.195,63.5453 172.195,61.3786 171.5,59C 171.608,57.3189 172.275,56.1522 173.5,55.5 Z"/></g>
<g><path style="opacity:1" fill="#d72c19" d="M 66.5,59.5 C 63.1297,72.5503 64.1297,85.217 69.5,97.5C 72.0675,102.404 75.4008,106.737 79.5,110.5C 91.2053,121.177 104.872,125.177 120.5,122.5C 125.035,121.766 129.368,120.433 133.5,118.5C 132.77,119.712 131.77,120.712 130.5,121.5C 121.034,124.026 111.367,125.192 101.5,125C 107.186,125.311 112.853,125.811 118.5,126.5C 122.016,125.081 125.682,124.414 129.5,124.5C 129.5,125.5 129.5,126.5 129.5,127.5C 128.183,127.179 126.849,126.846 125.5,126.5C 121.996,126.676 118.996,127.676 116.5,129.5C 113.104,129.633 112.771,130.633 115.5,132.5C 114.902,133.795 114.402,135.128 114,136.5C 113.329,137.252 112.496,137.586 111.5,137.5C 112.901,134.691 112.234,132.357 109.5,130.5C 110.397,130.331 111.397,129.998 112.5,129.5C 111.252,127.31 109.586,126.977 107.5,128.5C 104.157,127.974 100.99,126.974 98,125.5C 96.6012,125.501 95.1012,125.835 93.5,126.5C 92.7492,125.624 92.2492,124.624 92,123.5C 89.1002,126.057 87.9335,129.057 88.5,132.5C 90.2638,129.823 91.4304,130.156 92,133.5C 95.0419,128.188 96.2086,128.855 95.5,135.5C 98.2763,135.911 98.943,135.078 97.5,133C 99.2547,131.58 99.9214,130.08 99.5,128.5C 100.941,129.865 102.274,131.365 103.5,133C 99.6896,135.437 100.356,136.603 105.5,136.5C 105.739,134.533 105.406,132.699 104.5,131C 106.353,130.449 107.687,131.115 108.5,133C 107.663,134.011 107.33,135.178 107.5,136.5C 105.495,137.039 103.495,137.705 101.5,138.5C 102.243,139.182 102.909,139.849 103.5,140.5C 73.2124,135.215 54.5457,117.548 47.5,87.5C 46.73,77.8631 47.73,68.5298 50.5,59.5C 51.1818,60.2427 51.8485,60.9094 52.5,61.5C 52.8333,61.5 53.1667,61.5 53.5,61.5C 53.5,62.1667 53.5,62.8333 53.5,63.5C 51.6231,64.6591 51.1231,66.3258 52,68.5C 54.2431,70.282 56.7431,70.782 59.5,70C 61.0574,66.981 62.0574,63.8144 62.5,60.5C 63.404,59.791 63.7373,58.791 63.5,57.5C 64.9986,56.3218 65.9986,54.6551 66.5,52.5C 67.3635,54.7713 67.3635,57.1046 66.5,59.5 Z"/></g>
<g><path style="opacity:1" fill="#9b3831" d="M 53.5,61.5 C 55.5932,62.0447 57.5932,62.878 59.5,64C 58.0267,64.7096 57.3601,65.8762 57.5,67.5C 56.0222,67.762 54.6888,67.4287 53.5,66.5C 54.1667,66.1667 54.8333,65.8333 55.5,65.5C 55.1445,64.4777 54.4778,63.811 53.5,63.5C 53.5,62.8333 53.5,62.1667 53.5,61.5 Z"/></g>
<g><path style="opacity:1" fill="#f6dcd3" d="M 171.5,65.5 C 171.167,65.5 170.833,65.5 170.5,65.5C 168.283,66.3686 165.95,66.702 163.5,66.5C 162.833,66.5 162.5,66.1667 162.5,65.5C 162.651,62.1504 164.485,60.4837 168,60.5C 171.108,61.331 170.941,62.1643 167.5,63C 169.437,63.1216 170.77,63.955 171.5,65.5 Z"/></g>
<g><path style="opacity:1" fill="#f0cbc2" d="M 62.5,60.5 C 62.0574,63.8144 61.0574,66.981 59.5,70C 56.7431,70.782 54.2431,70.282 52,68.5C 51.1231,66.3258 51.6231,64.6591 53.5,63.5C 54.4778,63.811 55.1445,64.4777 55.5,65.5C 54.8333,65.8333 54.1667,66.1667 53.5,66.5C 54.6888,67.4287 56.0222,67.762 57.5,67.5C 57.3601,65.8762 58.0267,64.7096 59.5,64C 57.5932,62.878 55.5932,62.0447 53.5,61.5C 53.1667,61.5 52.8333,61.5 52.5,61.5C 52.5323,59.4334 53.5323,58.1001 55.5,57.5C 58.406,57.6433 60.7393,58.6433 62.5,60.5 Z"/></g>
<g><path style="opacity:1" fill="#bb514c" d="M 170.5,65.5 C 171.209,66.404 172.209,66.7373 173.5,66.5C 173.5,67.8333 173.5,69.1667 173.5,70.5C 172.732,69.7375 172.232,68.7375 172,67.5C 169.174,68.2129 166.34,68.8796 163.5,69.5C 163.5,68.5 163.5,67.5 163.5,66.5C 165.95,66.702 168.283,66.3686 170.5,65.5 Z"/></g>
<g><path style="opacity:1" fill="#b2a77b" d="M 103.5,28.5 C 109.69,28.1771 115.69,28.5104 121.5,29.5C 118.881,29.2317 116.381,29.565 114,30.5C 113.503,33.146 113.336,35.8127 113.5,38.5C 114.552,38.3505 115.552,38.5172 116.5,39C 115.555,40.9115 115.555,42.9115 116.5,45C 116.505,47.1628 115.505,48.6628 113.5,49.5C 121.181,50.531 126.515,54.531 129.5,61.5C 129.657,62.8734 129.49,64.2068 129,65.5C 128.667,65.1667 128.333,64.8333 128,64.5C 127.097,65.7014 125.931,66.5348 124.5,67C 126.619,67.0976 128.286,67.9309 129.5,69.5C 129.998,72.0634 129.331,74.3968 127.5,76.5C 124.84,73.7472 122.673,74.0805 121,77.5C 120.308,76.9747 119.808,76.3081 119.5,75.5C 121.997,74.4219 123.663,72.5885 124.5,70C 119.249,69.1963 114.082,69.363 109,70.5C 106.383,68.3467 103.55,68.18 100.5,70C 102.991,70.6259 102.991,71.4593 100.5,72.5C 102.149,73.1476 103.482,74.1476 104.5,75.5C 103.995,76.9185 102.995,77.5852 101.5,77.5C 98.5402,77.1954 96.5402,75.6954 95.5,73C 95.1838,68.2836 95.5171,63.4503 96.5,58.5C 95.0728,56.0997 95.5728,55.433 98,56.5C 100.022,53.2411 102.855,51.7411 106.5,52C 103.991,53.4213 101.657,55.0879 99.5,57C 100.416,57.3742 101.25,57.8742 102,58.5C 103.487,57.7471 103.654,56.9138 102.5,56C 103.935,56.3112 105.268,56.1445 106.5,55.5C 108.741,56.0318 110.241,57.3651 111,59.5C 111.333,59.1667 111.667,58.8333 112,58.5C 111.793,60.7513 111.627,63.0846 111.5,65.5C 113.144,65.2865 114.644,65.6198 116,66.5C 116.192,64.4233 116.692,62.4233 117.5,60.5C 118.216,62.482 119.383,64.1487 121,65.5C 122.927,63.4071 122.76,61.4071 120.5,59.5C 121.834,59.4707 123.167,58.6373 124.5,57C 121.691,53.8593 118.191,52.026 114,51.5C 110.888,51.5814 109.888,52.9148 111,55.5C 110.333,54.1667 109.667,54.1667 109,55.5C 109.497,53.8016 109.33,52.1349 108.5,50.5C 109.397,50.3309 110.397,49.9976 111.5,49.5C 109.404,48.4081 108.071,46.7414 107.5,44.5C 108.729,42.6013 109.895,40.6013 111,38.5C 111.497,36.1902 111.663,33.8568 111.5,31.5C 106.139,30.5555 100.805,30.5555 95.5,31.5C 98.0204,30.0818 100.687,29.0818 103.5,28.5 Z"/></g>
<g><path style="opacity:1" fill="#fcd8e1" d="M 173.5,70.5 C 173.5,70.8333 173.5,71.1667 173.5,71.5C 170.279,71.0181 166.946,71.0181 163.5,71.5C 163.5,70.8333 163.5,70.1667 163.5,69.5C 166.34,68.8796 169.174,68.2129 172,67.5C 172.232,68.7375 172.732,69.7375 173.5,70.5 Z"/></g>
<g><path style="opacity:1" fill="#f8ded8" d="M 163.5,73.5 C 166.898,73.1796 170.232,73.513 173.5,74.5C 173.145,75.5223 172.478,76.189 171.5,76.5C 168.833,76.5 166.167,76.5 163.5,76.5C 163.5,75.5 163.5,74.5 163.5,73.5 Z"/></g>
<g><path style="opacity:1" fill="#b4211e" d="M 175.5,62.5 C 178.065,71.491 178.065,80.491 175.5,89.5C 175.664,86.8127 175.497,84.146 175,81.5C 174.139,84.7305 172.972,87.7305 171.5,90.5C 171.421,89.0695 171.754,87.7362 172.5,86.5C 170.343,85.2096 168.01,84.3763 165.5,84C 168.095,83.7744 170.595,83.2744 173,82.5C 173.64,80.4567 173.14,78.7901 171.5,77.5C 171.5,77.1667 171.5,76.8333 171.5,76.5C 172.478,76.189 173.145,75.5223 173.5,74.5C 170.232,73.513 166.898,73.1796 163.5,73.5C 163.5,72.8333 163.5,72.1667 163.5,71.5C 166.946,71.0181 170.279,71.0181 173.5,71.5C 174.166,74.0277 174.832,76.6944 175.5,79.5C 175.833,78.3333 176.167,77.1667 176.5,76C 175.736,71.5302 175.403,67.0302 175.5,62.5 Z"/></g>
<g><path style="opacity:1" fill="#fce8db" d="M 60.5,73.5 C 60.5,74.8333 60.5,76.1667 60.5,77.5C 59.1667,77.5 57.8333,77.5 56.5,77.5C 54.5,77.5 52.5,77.5 50.5,77.5C 50.2808,73.4726 51.4475,72.8059 54,75.5C 55.0174,72.972 56.1841,72.972 57.5,75.5C 58.2652,74.3881 59.2652,73.7214 60.5,73.5 Z"/></g>
<g><path style="opacity:1" fill="#5c2522" d="M 163.5,76.5 C 166.167,76.5 168.833,76.5 171.5,76.5C 171.5,76.8333 171.5,77.1667 171.5,77.5C 168.721,77.2786 166.054,77.612 163.5,78.5C 163.5,77.8333 163.5,77.1667 163.5,76.5 Z"/></g>
<g><path style="opacity:1" fill="#b74a46" d="M 60.5,73.5 C 61.4861,77.97 61.8195,82.6367 61.5,87.5C 56.9593,87.6691 56.626,87.0025 60.5,85.5C 59.8333,85.1667 59.1667,84.8333 58.5,84.5C 57.0445,85.3898 55.7112,85.3898 54.5,84.5C 52.7826,85.6685 52.1159,87.3352 52.5,89.5C 51.5386,87.7354 51.2053,85.7354 51.5,83.5C 54.2492,83.7261 56.9159,83.3928 59.5,82.5C 60.8333,81.1667 60.8333,79.8333 59.5,78.5C 58.8333,79.1667 58.1667,79.8333 57.5,80.5C 56.8933,80.3764 56.56,80.0431 56.5,79.5C 57.5063,79.0623 57.5063,78.3957 56.5,77.5C 57.8333,77.5 59.1667,77.5 60.5,77.5C 60.5,76.1667 60.5,74.8333 60.5,73.5 Z"/></g>
<g><path style="opacity:1" fill="#3428a6" d="M 141.5,78.5 C 141.5,79.1667 141.5,79.8333 141.5,80.5C 141.5,83.1667 141.5,85.8333 141.5,88.5C 139.964,86.9749 138.964,84.9749 138.5,82.5C 138.167,82.6667 137.833,82.8333 137.5,83C 136.549,86.0567 136.216,89.2234 136.5,92.5C 135.834,88.3155 135.167,83.9822 134.5,79.5C 132.925,80.4565 131.258,81.1231 129.5,81.5C 128.662,81.1583 128.328,80.4916 128.5,79.5C 130.886,78.7019 133.22,77.7019 135.5,76.5C 136.719,77.2634 137.719,78.2634 138.5,79.5C 139.417,78.8728 140.417,78.5394 141.5,78.5 Z"/></g>
<g><path style="opacity:1" fill="#d9221a" d="M 160.5,59.5 C 160.833,59.5 161.167,59.5 161.5,59.5C 161.205,61.7354 161.539,63.7354 162.5,65.5C 162.5,66.1667 162.833,66.5 163.5,66.5C 163.5,67.5 163.5,68.5 163.5,69.5C 163.5,70.1667 163.5,70.8333 163.5,71.5C 163.5,72.1667 163.5,72.8333 163.5,73.5C 163.5,74.5 163.5,75.5 163.5,76.5C 163.5,77.1667 163.5,77.8333 163.5,78.5C 163.286,80.1439 163.62,81.6439 164.5,83C 162.771,84.7889 162.104,86.9556 162.5,89.5C 161.833,89.5 161.5,89.8333 161.5,90.5C 159.389,95.2552 160.722,96.9218 165.5,95.5C 166.298,95.9569 166.631,96.6236 166.5,97.5C 164.473,97.6621 162.473,97.4955 160.5,97C 159.151,96.2276 158.318,95.0609 158,93.5C 157.78,95.9732 156.614,97.6398 154.5,98.5C 156.478,92.5878 158.145,86.5878 159.5,80.5C 160.392,73.5338 160.725,66.5338 160.5,59.5 Z"/></g>
<g><path style="opacity:1" fill="#fbe5dc" d="M 51.5,83.5 C 51.0077,79.7104 51.841,79.0437 54,81.5C 54.4169,80.244 55.2502,79.5774 56.5,79.5C 56.56,80.0431 56.8933,80.3764 57.5,80.5C 58.1667,79.8333 58.8333,79.1667 59.5,78.5C 60.8333,79.8333 60.8333,81.1667 59.5,82.5C 56.9159,83.3928 54.2492,83.7261 51.5,83.5 Z"/></g>
<g><path style="opacity:1" fill="#edcdc6" d="M 171.5,77.5 C 173.14,78.7901 173.64,80.4567 173,82.5C 170.595,83.2744 168.095,83.7744 165.5,84C 168.01,84.3763 170.343,85.2096 172.5,86.5C 171.754,87.7362 171.421,89.0695 171.5,90.5C 170.833,90.5 170.167,90.5 169.5,90.5C 167.139,90.3259 164.806,89.9926 162.5,89.5C 162.104,86.9556 162.771,84.7889 164.5,83C 163.62,81.6439 163.286,80.1439 163.5,78.5C 166.054,77.612 168.721,77.2786 171.5,77.5 Z"/></g>
<g><path style="opacity:1" fill="#23187b" d="M 128.5,79.5 C 128.328,80.4916 128.662,81.1583 129.5,81.5C 124.167,84.1667 118.833,86.8333 113.5,89.5C 113.167,89.5 112.833,89.5 112.5,89.5C 111.833,89.5 111.167,89.5 110.5,89.5C 102.955,85.8941 95.2879,82.5608 87.5,79.5C 87.1583,78.6618 86.4916,78.3284 85.5,78.5C 85.3691,77.6236 85.7025,76.9569 86.5,76.5C 94.7503,80.361 103.084,84.0277 111.5,87.5C 117.314,85.0926 122.98,82.4259 128.5,79.5 Z"/></g>
<g><path style="opacity:1" fill="#0c0ae0" d="M 141.5,88.5 C 141.5,89.5 141.5,90.5 141.5,91.5C 141.827,96.2137 141.493,100.88 140.5,105.5C 139.914,105.709 139.414,106.043 139,106.5C 138.825,101.981 138.325,97.6472 137.5,93.5C 137.167,93.5 136.833,93.5 136.5,93.5C 136.5,93.1667 136.5,92.8333 136.5,92.5C 136.216,89.2234 136.549,86.0567 137.5,83C 137.833,82.8333 138.167,82.6667 138.5,82.5C 138.964,84.9749 139.964,86.9749 141.5,88.5 Z"/></g>
<g><path style="opacity:1" fill="#0b08e2" d="M 82.5,95.5 C 82.5,95.1667 82.5,94.8333 82.5,94.5C 83.3238,90.6877 83.8238,86.6877 84,82.5C 84.414,82.0426 84.914,81.7093 85.5,81.5C 86.5747,89.8277 86.5747,98.1611 85.5,106.5C 84.5,106.5 83.5,106.5 82.5,106.5C 82.5,102.833 82.5,99.1667 82.5,95.5 Z"/></g>
<g><path style="opacity:1" fill="#f3f3f8" d="M 141.5,80.5 C 142.167,83.5 142.833,86.5 143.5,89.5C 143.666,95.5092 143.499,101.509 143,107.5C 141.556,109.155 139.722,109.822 137.5,109.5C 137.833,108.833 138.167,108.167 138.5,107.5C 139.583,107.461 140.583,107.127 141.5,106.5C 142.814,101.348 142.814,96.3477 141.5,91.5C 141.5,90.5 141.5,89.5 141.5,88.5C 141.5,85.8333 141.5,83.1667 141.5,80.5 Z"/></g>
<g><path style="opacity:1" fill="#f1d7d5" d="M 61.5,87.5 C 61.5,88.1667 61.5,88.8333 61.5,89.5C 58.5448,90.1587 55.5448,90.4921 52.5,90.5C 52.5,90.1667 52.5,89.8333 52.5,89.5C 52.1159,87.3352 52.7826,85.6685 54.5,84.5C 55.7112,85.3898 57.0445,85.3898 58.5,84.5C 59.1667,84.8333 59.8333,85.1667 60.5,85.5C 56.626,87.0025 56.9593,87.6691 61.5,87.5 Z"/></g>
<g><path style="opacity:1" fill="#e9eaf1" d="M 87.5,79.5 C 95.2879,82.5608 102.955,85.8941 110.5,89.5C 111.241,95.4707 111.575,101.471 111.5,107.5C 111.337,109.857 111.503,112.19 112,114.5C 113.113,113.289 114.28,113.289 115.5,114.5C 116.672,114.081 117.672,113.415 118.5,112.5C 118.277,111.033 117.944,109.533 117.5,108C 118.13,104.871 118.796,101.704 119.5,98.5C 119.109,99.7185 119.776,100.552 121.5,101C 120.833,101.667 120.167,102.333 119.5,103C 120.833,103 122.167,103 123.5,103C 122.167,104 120.833,105 119.5,106C 121.991,106.626 121.991,107.459 119.5,108.5C 120.025,109.192 120.692,109.692 121.5,110C 118.887,111.071 118.887,111.905 121.5,112.5C 118.826,114.319 115.993,115.986 113,117.5C 108.579,116.2 104.413,114.534 100.5,112.5C 103.206,112.575 105.873,112.908 108.5,113.5C 108.5,110.833 108.5,108.167 108.5,105.5C 109.029,101.649 108.362,98.1494 106.5,95C 109.167,94 109.167,93 106.5,92C 107.308,91.6924 107.975,91.1924 108.5,90.5C 106.614,89.5937 104.78,88.5937 103,87.5C 103.077,88.7376 102.911,89.7376 102.5,90.5C 98.3563,88.7309 94.1896,87.0642 90,85.5C 89.5439,86.7441 90.0439,87.5774 91.5,88C 89.1088,88.6914 89.1088,89.6914 91.5,91C 90.8333,91.3333 90.1667,91.6667 89.5,92C 90.6405,92.7412 90.6405,93.5745 89.5,94.5C 90.5909,95.8876 91.9242,96.3876 93.5,96C 91.1952,94.3361 91.5285,92.8361 94.5,91.5C 96.3334,92.0521 98.0001,92.8855 99.5,94C 98.1011,94.5946 96.7678,94.4279 95.5,93.5C 94.3044,93.8457 94.3044,94.3457 95.5,95C 97,95.5 98.5,96 100,96.5C 101.011,96.1081 101.511,95.4415 101.5,94.5C 103.333,95.0521 105,95.8855 106.5,97C 105.049,96.7374 103.716,96.9041 102.5,97.5C 103.908,98.2432 105.241,99.0766 106.5,100C 104.981,99.6692 103.648,99.8359 102.5,100.5C 102.062,101.506 101.396,101.506 100.5,100.5C 98.8967,100.688 97.5634,100.188 96.5,99C 97.6716,98.6466 98.8382,98.8132 100,99.5C 101.722,99.3893 101.888,98.8893 100.5,98C 98.7818,97.654 97.1151,97.154 95.5,96.5C 95.5105,97.4415 95.0105,98.1081 94,98.5C 92.5349,97.6705 91.0349,97.5038 89.5,98C 90.6405,98.7412 90.6405,99.5745 89.5,100.5C 91.9913,101.541 91.9913,102.374 89.5,103C 91.8912,104.309 91.8912,105.309 89.5,106C 90.056,106.383 90.3893,106.883 90.5,107.5C 89.5,107.5 88.5,107.5 87.5,107.5C 87.5,98.1667 87.5,88.8333 87.5,79.5 Z"/></g>
<g><path style="opacity:1" fill="#6c716a" d="M 89.5,82.5 C 92.8891,83.6311 96.2225,84.9645 99.5,86.5C 100.521,87.0016 100.688,87.6683 100,88.5C 96.9726,86.8784 93.8059,85.5451 90.5,84.5C 89.7025,84.0431 89.3691,83.3764 89.5,82.5 Z"/></g>
<g><path style="opacity:1" fill="#eeeef2" d="M 136.5,92.5 C 136.5,92.8333 136.5,93.1667 136.5,93.5C 136.5,97.5 136.5,101.5 136.5,105.5C 135.127,105.657 133.793,105.49 132.5,105C 132.944,103.467 133.277,101.967 133.5,100.5C 132.975,99.8076 132.308,99.3076 131.5,99C 134.167,98 134.167,97 131.5,96C 134.167,95 134.167,94 131.5,93C 134.167,92 134.167,91 131.5,90C 133.891,89.3086 133.891,88.3086 131.5,87C 132.167,86.6667 132.833,86.3333 133.5,86C 131.316,85.5576 129.316,86.0576 127.5,87.5C 128.025,88.1924 128.692,88.6924 129.5,89C 126.833,90 126.833,91 129.5,92C 128.365,92.7494 127.365,92.5827 126.5,91.5C 125.054,87.9879 123.054,87.8213 120.5,91C 122.991,91.6259 122.991,92.4593 120.5,93.5C 122.981,94.8596 122.648,95.8596 119.5,96.5C 118.646,95.4783 117.646,94.6449 116.5,94C 119.113,92.9288 119.113,92.0955 116.5,91.5C 115.909,92.1515 115.243,92.8182 114.5,93.5C 115.714,96.0313 115.714,98.8647 114.5,102C 114.675,103.658 115.342,104.991 116.5,106C 115.359,107.617 114.526,109.45 114,111.5C 113.5,104.174 113.334,96.8409 113.5,89.5C 118.833,86.8333 124.167,84.1667 129.5,81.5C 131.258,81.1231 132.925,80.4565 134.5,79.5C 135.167,83.9822 135.834,88.3155 136.5,92.5 Z"/></g>
<g><path style="opacity:1" fill="#585f68" d="M 116.5,91.5 C 115.624,91.6309 114.957,91.2975 114.5,90.5C 115.705,88.8624 117.038,88.5291 118.5,89.5C 117.757,90.1818 117.091,90.8485 116.5,91.5 Z"/></g>
<g><path style="opacity:1" fill="#4a514c" d="M 123.5,85.5 C 124.552,85.3505 125.552,85.5172 126.5,86C 124.598,87.3011 122.598,87.9678 120.5,88C 121.571,87.1482 122.571,86.3149 123.5,85.5 Z"/></g>
<g><path style="opacity:1" fill="#545e63" d="M 130.5,82.5 C 131.552,82.3505 132.552,82.5172 133.5,83C 131.598,84.3011 129.598,84.9678 127.5,85C 128.571,84.1482 129.571,83.3149 130.5,82.5 Z"/></g>
<g><path style="opacity:1" fill="#934843" d="M 161.5,90.5 C 161.5,89.8333 161.833,89.5 162.5,89.5C 164.806,89.9926 167.139,90.3259 169.5,90.5C 169.5,91.1667 169.5,91.8333 169.5,92.5C 167.173,92.2471 165.173,92.9137 163.5,94.5C 163.167,94.1667 162.833,93.8333 162.5,93.5C 165.229,91.6329 164.896,90.6329 161.5,90.5 Z"/></g>
<g><path style="opacity:1" fill="#989796" d="M 108.5,105.5 C 104.238,104.807 103.905,103.974 107.5,103C 105.97,101.88 104.303,101.046 102.5,100.5C 103.648,99.8359 104.981,99.6692 106.5,100C 105.241,99.0766 103.908,98.2432 102.5,97.5C 103.716,96.9041 105.049,96.7374 106.5,97C 105,95.8855 103.333,95.0521 101.5,94.5C 101.511,95.4415 101.011,96.1081 100,96.5C 98.5,96 97,95.5 95.5,95C 94.3044,94.3457 94.3044,93.8457 95.5,93.5C 96.7678,94.4279 98.1011,94.5946 99.5,94C 98.0001,92.8855 96.3334,92.0521 94.5,91.5C 91.5285,92.8361 91.1952,94.3361 93.5,96C 91.9242,96.3876 90.5909,95.8876 89.5,94.5C 90.6405,93.5745 90.6405,92.7412 89.5,92C 90.1667,91.6667 90.8333,91.3333 91.5,91C 89.1088,89.6914 89.1088,88.6914 91.5,88C 90.0439,87.5774 89.5439,86.7441 90,85.5C 94.1896,87.0642 98.3563,88.7309 102.5,90.5C 102.911,89.7376 103.077,88.7376 103,87.5C 104.78,88.5937 106.614,89.5937 108.5,90.5C 107.975,91.1924 107.308,91.6924 106.5,92C 109.167,93 109.167,94 106.5,95C 108.362,98.1494 109.029,101.649 108.5,105.5 Z"/></g>
<g><path style="opacity:1" fill="#a23e3c" d="M 61.5,89.5 C 61.5,89.8333 61.5,90.1667 61.5,90.5C 58.9315,90.5943 57.4315,91.9276 57,94.5C 56.296,92.273 55.1294,91.9397 53.5,93.5C 53.4431,92.391 53.1098,91.391 52.5,90.5C 55.5448,90.4921 58.5448,90.1587 61.5,89.5 Z"/></g>
<g><path style="opacity:1" fill="#eac8c1" d="M 61.5,90.5 C 63.2132,91.6354 63.8799,93.302 63.5,95.5C 60.9899,95.0535 58.9899,95.7202 57.5,97.5C 54.5,97.8333 53.1667,96.5 53.5,93.5C 55.1294,91.9397 56.296,92.273 57,94.5C 57.4315,91.9276 58.9315,90.5943 61.5,90.5 Z"/></g>
<g><path style="opacity:1" fill="#da2820" d="M 175.5,89.5 C 174.512,94.9648 173.012,100.298 171,105.5C 170.292,106.381 169.458,107.047 168.5,107.5C 168.963,104.518 169.296,101.518 169.5,98.5C 168.209,98.7373 167.209,98.404 166.5,97.5C 169.89,97.0394 170.89,95.3727 169.5,92.5C 169.5,91.8333 169.5,91.1667 169.5,90.5C 170.167,90.5 170.833,90.5 171.5,90.5C 172.972,87.7305 174.139,84.7305 175,81.5C 175.497,84.146 175.664,86.8127 175.5,89.5 Z"/></g>
<g><path style="opacity:1" fill="#0d1135" d="M 110.5,89.5 C 111.167,89.5 111.833,89.5 112.5,89.5C 112.823,95.69 112.49,101.69 111.5,107.5C 111.575,101.471 111.241,95.4707 110.5,89.5 Z"/></g>
<g><path style="opacity:1" fill="#f5d0c8" d="M 161.5,90.5 C 164.896,90.6329 165.229,91.6329 162.5,93.5C 162.833,93.8333 163.167,94.1667 163.5,94.5C 165.173,92.9137 167.173,92.2471 169.5,92.5C 170.89,95.3727 169.89,97.0394 166.5,97.5C 166.631,96.6236 166.298,95.9569 165.5,95.5C 160.722,96.9218 159.389,95.2552 161.5,90.5 Z"/></g>
<g><path style="opacity:1" fill="#f0160d" d="M 69.5,97.5 C 69.8504,100.872 70.1838,104.039 70.5,107C 69.552,107.483 68.552,107.649 67.5,107.5C 68.1052,102.875 66.4386,101.208 62.5,102.5C 61.032,103.779 60.3653,105.446 60.5,107.5C 61.8333,107.5 63.1667,107.5 64.5,107.5C 64.9175,108.222 65.5842,108.722 66.5,109C 65.6198,110.356 65.2865,111.856 65.5,113.5C 64.2652,113.721 63.2652,114.388 62.5,115.5C 58.0389,110.991 55.0389,105.657 53.5,99.5C 55.4832,99.8432 56.8166,99.1765 57.5,97.5C 61.6439,99.5552 64.1439,98.2219 65,93.5C 65.4505,96.1059 66.9505,97.4392 69.5,97.5 Z"/></g>
<g><path style="opacity:1" fill="#898a89" d="M 100.5,100.5 C 100.631,101.239 100.464,101.906 100,102.5C 98.9505,101.483 97.7839,101.316 96.5,102C 97.7588,102.923 99.0921,103.757 100.5,104.5C 99.9344,105.291 99.101,105.291 98,104.5C 97.3333,105.167 96.6667,105.833 96,106.5C 95.5,106.167 95,105.833 94.5,105.5C 94.723,104.033 95.0563,102.533 95.5,101C 94.7248,99.7705 93.7248,99.4372 92.5,100C 92.8333,102.333 93.1667,104.667 93.5,107C 92.552,107.483 91.552,107.649 90.5,107.5C 90.3893,106.883 90.056,106.383 89.5,106C 91.8912,105.309 91.8912,104.309 89.5,103C 91.9913,102.374 91.9913,101.541 89.5,100.5C 90.6405,99.5745 90.6405,98.7412 89.5,98C 91.0349,97.5038 92.5349,97.6705 94,98.5C 95.0105,98.1081 95.5105,97.4415 95.5,96.5C 97.1151,97.154 98.7818,97.654 100.5,98C 101.888,98.8893 101.722,99.3893 100,99.5C 98.8382,98.8132 97.6716,98.6466 96.5,99C 97.5634,100.188 98.8967,100.688 100.5,100.5 Z"/></g>
<g><path style="opacity:1" fill="#f7f4cb" d="M 121.5,29.5 C 125.642,30.5323 129.642,31.8657 133.5,33.5C 140.693,37.0226 146.693,42.0226 151.5,48.5C 154.095,53.3585 156.429,58.3585 158.5,63.5C 159.495,69.1278 159.829,74.7945 159.5,80.5C 158.145,86.5878 156.478,92.5878 154.5,98.5C 151.411,102.768 148.077,106.934 144.5,111C 140.734,113.535 137.067,116.035 133.5,118.5C 129.368,120.433 125.035,121.766 120.5,122.5C 115.067,123.187 114.401,122.021 118.5,119C 122.485,118.618 125.485,116.784 127.5,113.5C 130.675,111.868 134.008,110.535 137.5,109.5C 139.722,109.822 141.556,109.155 143,107.5C 143.499,101.509 143.666,95.5092 143.5,89.5C 144.319,92.3054 144.819,95.3054 145,98.5C 150.609,94.057 152.442,88.3903 150.5,81.5C 151.716,80.9041 153.049,80.7374 154.5,81C 153.978,80.4387 153.645,79.772 153.5,79C 154.454,77.0924 155.121,75.0924 155.5,73C 155.642,70.0878 154.309,68.5878 151.5,68.5C 151.5,66.8333 151.5,65.1667 151.5,63.5C 150.5,63.5 149.5,63.5 148.5,63.5C 149.129,61.0144 150.129,58.6811 151.5,56.5C 151.24,54.3825 150.24,52.7158 148.5,51.5C 147.167,54.8333 145.833,58.1667 144.5,61.5C 144.167,60.3333 143.833,59.1667 143.5,58C 144.65,54.77 145.984,51.6033 147.5,48.5C 145.659,47.7696 143.825,47.1029 142,46.5C 140.274,47.5762 138.441,47.7429 136.5,47C 139.767,46.1049 140.434,44.2716 138.5,41.5C 134.854,42.6863 131.187,44.0196 127.5,45.5C 127.346,41.9761 128.18,38.9761 130,36.5C 127.412,33.8001 124.579,31.4668 121.5,29.5 Z"/></g>
<g><path style="opacity:1" fill="#2a20aa" d="M 141.5,91.5 C 142.814,96.3477 142.814,101.348 141.5,106.5C 140.583,107.127 139.583,107.461 138.5,107.5C 137.514,103.03 137.181,98.3633 137.5,93.5C 138.325,97.6472 138.825,101.981 139,106.5C 139.414,106.043 139.914,105.709 140.5,105.5C 141.493,100.88 141.827,96.2137 141.5,91.5 Z"/></g>
<g><path style="opacity:1" fill="#fbdf2f" d="M 62.5,102.5 C 65.5031,103.17 66.1697,104.837 64.5,107.5C 63.1667,107.5 61.8333,107.5 60.5,107.5C 60.3653,105.446 61.032,103.779 62.5,102.5 Z"/></g>
<g><path style="opacity:1" fill="#2e26bc" d="M 85.5,78.5 C 86.4916,78.3284 87.1583,78.6618 87.5,79.5C 87.5,88.8333 87.5,98.1667 87.5,107.5C 86.791,108.404 85.791,108.737 84.5,108.5C 83.5041,108.586 82.6708,108.252 82,107.5C 81.1881,103.311 81.3547,99.3112 82.5,95.5C 82.5,99.1667 82.5,102.833 82.5,106.5C 83.5,106.5 84.5,106.5 85.5,106.5C 86.5747,98.1611 86.5747,89.8277 85.5,81.5C 84.914,81.7093 84.414,82.0426 84,82.5C 83.8238,86.6877 83.3238,90.6877 82.5,94.5C 82.1725,89.456 82.5059,84.456 83.5,79.5C 84.944,80.981 85.6106,80.6477 85.5,78.5 Z"/></g>
<g><path style="opacity:1" fill="#aeafb1" d="M 136.5,105.5 C 131.678,108.076 126.678,110.409 121.5,112.5C 118.887,111.905 118.887,111.071 121.5,110C 120.692,109.692 120.025,109.192 119.5,108.5C 121.991,107.459 121.991,106.626 119.5,106C 120.833,105 122.167,104 123.5,103C 122.167,103 120.833,103 119.5,103C 120.167,102.333 120.833,101.667 121.5,101C 119.776,100.552 119.109,99.7185 119.5,98.5C 118.796,101.704 118.13,104.871 117.5,108C 117.944,109.533 118.277,111.033 118.5,112.5C 117.672,113.415 116.672,114.081 115.5,114.5C 114.28,113.289 113.113,113.289 112,114.5C 111.503,112.19 111.337,109.857 111.5,107.5C 112.49,101.69 112.823,95.69 112.5,89.5C 112.833,89.5 113.167,89.5 113.5,89.5C 113.334,96.8409 113.5,104.174 114,111.5C 114.526,109.45 115.359,107.617 116.5,106C 115.342,104.991 114.675,103.658 114.5,102C 115.714,98.8647 115.714,96.0313 114.5,93.5C 115.243,92.8182 115.909,92.1515 116.5,91.5C 119.113,92.0955 119.113,92.9288 116.5,94C 117.646,94.6449 118.646,95.4783 119.5,96.5C 122.648,95.8596 122.981,94.8596 120.5,93.5C 122.991,92.4593 122.991,91.6259 120.5,91C 123.054,87.8213 125.054,87.9879 126.5,91.5C 127.365,92.5827 128.365,92.7494 129.5,92C 126.833,91 126.833,90 129.5,89C 128.692,88.6924 128.025,88.1924 127.5,87.5C 129.316,86.0576 131.316,85.5576 133.5,86C 132.833,86.3333 132.167,86.6667 131.5,87C 133.891,88.3086 133.891,89.3086 131.5,90C 134.167,91 134.167,92 131.5,93C 134.167,94 134.167,95 131.5,96C 134.167,97 134.167,98 131.5,99C 132.308,99.3076 132.975,99.8076 133.5,100.5C 133.277,101.967 132.944,103.467 132.5,105C 133.793,105.49 135.127,105.657 136.5,105.5 Z"/></g>
<g><path style="opacity:1" fill="#ef0f0a" d="M 166.5,97.5 C 167.209,98.404 168.209,98.7373 169.5,98.5C 169.296,101.518 168.963,104.518 168.5,107.5C 166.57,107.229 165.236,106.229 164.5,104.5C 162.5,103.167 160.5,103.167 158.5,104.5C 157.503,104.47 156.836,104.97 156.5,106C 157.51,110.337 160.01,111.503 164,109.5C 164.553,112.82 163.386,115.486 160.5,117.5C 159.735,116.388 158.735,115.721 157.5,115.5C 156.489,113.628 155.655,111.628 155,109.5C 153.644,108.62 152.144,108.286 150.5,108.5C 151.847,105.16 153.18,101.826 154.5,98.5C 156.614,97.6398 157.78,95.9732 158,93.5C 158.318,95.0609 159.151,96.2276 160.5,97C 162.473,97.4955 164.473,97.6621 166.5,97.5 Z"/></g>
<g><path style="opacity:1" fill="#f5cc36" d="M 164.5,104.5 C 162.069,111.001 160.069,111.001 158.5,104.5C 160.5,103.167 162.5,103.167 164.5,104.5 Z"/></g>
<g><path style="opacity:1" fill="#b8b9bd" d="M 100.5,100.5 C 101.396,101.506 102.062,101.506 102.5,100.5C 104.303,101.046 105.97,101.88 107.5,103C 103.905,103.974 104.238,104.807 108.5,105.5C 108.5,108.167 108.5,110.833 108.5,113.5C 105.873,112.908 103.206,112.575 100.5,112.5C 96.5686,111.868 93.2353,110.201 90.5,107.5C 91.552,107.649 92.552,107.483 93.5,107C 93.1667,104.667 92.8333,102.333 92.5,100C 93.7248,99.4372 94.7248,99.7705 95.5,101C 95.0563,102.533 94.723,104.033 94.5,105.5C 95,105.833 95.5,106.167 96,106.5C 96.6667,105.833 97.3333,105.167 98,104.5C 99.101,105.291 99.9344,105.291 100.5,104.5C 99.0921,103.757 97.7588,102.923 96.5,102C 97.7839,101.316 98.9505,101.483 100,102.5C 100.464,101.906 100.631,101.239 100.5,100.5 Z"/></g>
<g><path style="opacity:1" fill="#3f35a9" d="M 136.5,93.5 C 136.833,93.5 137.167,93.5 137.5,93.5C 137.181,98.3633 137.514,103.03 138.5,107.5C 138.167,108.167 137.833,108.833 137.5,109.5C 134.008,110.535 130.675,111.868 127.5,113.5C 122.685,115.935 117.852,118.268 113,120.5C 103.377,116.6 93.8766,112.6 84.5,108.5C 85.791,108.737 86.791,108.404 87.5,107.5C 88.5,107.5 89.5,107.5 90.5,107.5C 93.2353,110.201 96.5686,111.868 100.5,112.5C 104.413,114.534 108.579,116.2 113,117.5C 115.993,115.986 118.826,114.319 121.5,112.5C 126.678,110.409 131.678,108.076 136.5,105.5C 136.5,101.5 136.5,97.5 136.5,93.5 Z"/></g>
<g><path style="opacity:1" fill="#f1eed4" d="M 96.5,58.5 C 95.5171,63.4503 95.1838,68.2836 95.5,73C 96.5402,75.6954 98.5402,77.1954 101.5,77.5C 102.3,79.7409 103.966,80.7409 106.5,80.5C 109.287,81.4767 112.287,81.81 115.5,81.5C 119.511,79.8271 123.511,78.1604 127.5,76.5C 129.331,74.3968 129.998,72.0634 129.5,69.5C 128.286,67.9309 126.619,67.0976 124.5,67C 125.931,66.5348 127.097,65.7014 128,64.5C 128.333,64.8333 128.667,65.1667 129,65.5C 129.49,64.2068 129.657,62.8734 129.5,61.5C 129.369,60.7611 129.536,60.0944 130,59.5C 130.875,62.2146 132.708,63.5479 135.5,63.5C 135.238,64.9778 135.571,66.3112 136.5,67.5C 138.844,66.6628 140.844,65.3294 142.5,63.5C 143.68,68.1674 141.68,70.3341 136.5,70C 138.067,72.741 140.401,73.9077 143.5,73.5C 143.169,75.3224 142.502,76.9891 141.5,78.5C 140.417,78.5394 139.417,78.8728 138.5,79.5C 137.719,78.2634 136.719,77.2634 135.5,76.5C 133.22,77.7019 130.886,78.7019 128.5,79.5C 122.98,82.4259 117.314,85.0926 111.5,87.5C 103.084,84.0277 94.7503,80.361 86.5,76.5C 85.7025,76.9569 85.3691,77.6236 85.5,78.5C 85.6106,80.6477 84.944,80.981 83.5,79.5C 82.5059,84.456 82.1725,89.456 82.5,94.5C 82.5,94.8333 82.5,95.1667 82.5,95.5C 81.3547,99.3112 81.1881,103.311 82,107.5C 82.6708,108.252 83.5041,108.586 84.5,108.5C 93.8766,112.6 103.377,116.6 113,120.5C 117.852,118.268 122.685,115.935 127.5,113.5C 125.485,116.784 122.485,118.618 118.5,119C 114.401,122.021 115.067,123.187 120.5,122.5C 104.872,125.177 91.2053,121.177 79.5,110.5C 79.7831,96.9848 80.1165,83.3182 80.5,69.5C 81.5,69.5 82.5,69.5 83.5,69.5C 83.2011,67.396 83.5344,65.396 84.5,63.5C 84.9532,67.7039 86.4532,71.3706 89,74.5C 89.4828,73.552 89.6495,72.552 89.5,71.5C 92.9496,72.2436 94.6162,70.9103 94.5,67.5C 92.1667,67.5 89.8333,67.5 87.5,67.5C 87.5,66.1667 87.5,64.8333 87.5,63.5C 89.5,63.5 91.5,63.5 93.5,63.5C 93.2407,61.0107 94.2407,59.344 96.5,58.5 Z"/></g>
<g><path style="opacity:1" fill="#b39e65" d="M 115.5,81.5 C 112.287,81.81 109.287,81.4767 106.5,80.5C 106.469,79.3702 106.802,78.0369 107.5,76.5C 108.025,75.8076 108.692,75.3076 109.5,75C 107.616,74.7837 105.949,74.117 104.5,73C 107.208,72.7639 109.708,71.9305 112,70.5C 114.071,71.7865 116.238,72.9532 118.5,74C 115.668,74.2121 113.002,74.3787 110.5,74.5C 112.078,75.2978 113.744,75.7978 115.5,76C 114.862,77.7067 114.862,79.54 115.5,81.5 Z"/></g>
<g><path style="opacity:1" fill="#483a20" d="M 127.5,76.5 C 123.511,78.1604 119.511,79.8271 115.5,81.5C 114.862,79.54 114.862,77.7067 115.5,76C 113.744,75.7978 112.078,75.2978 110.5,74.5C 113.002,74.3787 115.668,74.2121 118.5,74C 116.238,72.9532 114.071,71.7865 112,70.5C 109.708,71.9305 107.208,72.7639 104.5,73C 105.949,74.117 107.616,74.7837 109.5,75C 108.692,75.3076 108.025,75.8076 107.5,76.5C 106.802,78.0369 106.469,79.3702 106.5,80.5C 103.966,80.7409 102.3,79.7409 101.5,77.5C 102.995,77.5852 103.995,76.9185 104.5,75.5C 103.482,74.1476 102.149,73.1476 100.5,72.5C 102.991,71.4593 102.991,70.6259 100.5,70C 103.55,68.18 106.383,68.3467 109,70.5C 114.082,69.363 119.249,69.1963 124.5,70C 123.663,72.5885 121.997,74.4219 119.5,75.5C 119.808,76.3081 120.308,76.9747 121,77.5C 122.673,74.0805 124.84,73.7472 127.5,76.5 Z"/></g>
<g><path style="opacity:1" fill="#c47c11" d="M 74.5,111.5 C 75.5,112.5 76.5,113.5 77.5,114.5C 74.8508,116.14 72.1841,117.807 69.5,119.5C 67.8608,118.527 66.5274,117.194 65.5,115.5C 67.736,114.611 69.736,113.278 71.5,111.5C 71.8333,111.833 72.1667,112.167 72.5,112.5C 71.6533,113.845 70.4866,114.845 69,115.5C 68.3123,116.332 68.479,116.998 69.5,117.5C 71.9377,116.069 73.6044,114.069 74.5,111.5 Z"/></g>
<g><path style="opacity:1" fill="#fce340" d="M 74.5,111.5 C 73.6044,114.069 71.9377,116.069 69.5,117.5C 68.479,116.998 68.3123,116.332 69,115.5C 70.4866,114.845 71.6533,113.845 72.5,112.5C 72.1667,112.167 71.8333,111.833 71.5,111.5C 69.736,113.278 67.736,114.611 65.5,115.5C 65.5,114.833 65.5,114.167 65.5,113.5C 67.5715,112.046 69.7381,110.713 72,109.5C 73.301,109.639 74.1344,110.305 74.5,111.5 Z"/></g>
<g><path style="opacity:1" fill="#d23517" d="M 154.5,98.5 C 153.18,101.826 151.847,105.16 150.5,108.5C 152.144,108.286 153.644,108.62 155,109.5C 155.655,111.628 156.489,113.628 157.5,115.5C 158.735,115.721 159.735,116.388 160.5,117.5C 163.386,115.486 164.553,112.82 164,109.5C 160.01,111.503 157.51,110.337 156.5,106C 156.836,104.97 157.503,104.47 158.5,104.5C 160.069,111.001 162.069,111.001 164.5,104.5C 165.236,106.229 166.57,107.229 168.5,107.5C 161.951,121.051 151.617,130.384 137.5,135.5C 136.817,133.824 135.483,133.157 133.5,133.5C 133.5,132.167 133.5,130.833 133.5,129.5C 134.875,132.57 136.875,133.07 139.5,131C 138.552,130.517 137.552,130.351 136.5,130.5C 136.414,128.323 135.747,126.323 134.5,124.5C 133.833,123.167 133.167,123.167 132.5,124.5C 133.127,125.417 133.461,126.417 133.5,127.5C 131.744,126.448 131.077,124.781 131.5,122.5C 133.5,122.167 135.5,121.833 137.5,121.5C 137.5,120.5 137.5,119.5 137.5,118.5C 136.167,118.5 134.833,118.5 133.5,118.5C 137.067,116.035 140.734,113.535 144.5,111C 148.077,106.934 151.411,102.768 154.5,98.5 Z"/></g>
<g><path style="opacity:1" fill="#eed53a" d="M 157.5,115.5 C 158.895,116.648 158.728,117.648 157,118.5C 155.114,117.07 153.447,115.403 152,113.5C 151.667,113.833 151.333,114.167 151,114.5C 151.59,116.814 152.757,118.981 154.5,121C 153.355,122.402 152.022,123.569 150.5,124.5C 148.322,122.142 146.655,119.475 145.5,116.5C 148.13,114.372 150.63,112.039 153,109.5C 153.566,112.229 155.066,114.229 157.5,115.5 Z"/></g>
<g><path style="opacity:1" fill="#f3d52f" d="M 77.5,114.5 C 78.5735,115.251 78.7401,116.251 78,117.5C 76.7085,119.249 75.5418,121.082 74.5,123C 72.5002,122.53 70.8336,121.364 69.5,119.5C 72.1841,117.807 74.8508,116.14 77.5,114.5 Z"/></g>
<g><path style="opacity:1" fill="#bd7811" d="M 145.5,116.5 C 146.655,119.475 148.322,122.142 150.5,124.5C 149.833,125.167 149.167,125.833 148.5,126.5C 148.716,124.319 147.883,122.653 146,121.5C 146.269,126.79 145.103,126.79 142.5,121.5C 143.441,121.511 144.108,121.011 144.5,120C 144.164,118.97 143.497,118.47 142.5,118.5C 143.29,117.599 144.29,116.932 145.5,116.5 Z"/></g>
<g><path style="opacity:1" fill="#a55a07" d="M 81.5,129.5 C 80.2905,129.068 79.2905,128.401 78.5,127.5C 80.3386,126.492 81.6719,124.992 82.5,123C 83.1667,122.333 83.8333,122.333 84.5,123C 83.086,124.993 82.086,127.16 81.5,129.5 Z"/></g>
<g><path style="opacity:1" fill="#fbe644" d="M 142.5,118.5 C 143.497,118.47 144.164,118.97 144.5,120C 144.108,121.011 143.441,121.511 142.5,121.5C 145.103,126.79 146.269,126.79 146,121.5C 147.883,122.653 148.716,124.319 148.5,126.5C 146.609,127.536 144.776,127.536 143,126.5C 142.03,124.726 141.196,122.893 140.5,121C 140.639,119.699 141.305,118.866 142.5,118.5 Z"/></g>
<g><path style="opacity:1" fill="#f5de38" d="M 81.5,129.5 C 82.086,127.16 83.086,124.993 84.5,123C 83.8333,122.333 83.1667,122.333 82.5,123C 81.6719,124.992 80.3386,126.492 78.5,127.5C 78.8146,125.774 78.9813,124.107 79,122.5C 78.1667,123.5 77.3333,124.5 76.5,125.5C 76.1667,125.167 75.8333,124.833 75.5,124.5C 76.6351,122.201 77.9684,120.034 79.5,118C 82.2981,117.439 84.1314,118.606 85,121.5C 85.3333,121.167 85.6667,120.833 86,120.5C 87.0736,121.618 88.2402,122.618 89.5,123.5C 88.1667,126.167 86.8333,128.833 85.5,131.5C 84.4763,130.147 83.143,129.48 81.5,129.5 Z"/></g>
<g><path style="opacity:1" fill="#fddd53" d="M 133.5,129.5 C 133.5,128.833 133.5,128.167 133.5,127.5C 133.461,126.417 133.127,125.417 132.5,124.5C 133.167,123.167 133.833,123.167 134.5,124.5C 135.747,126.323 136.414,128.323 136.5,130.5C 137.552,130.351 138.552,130.517 139.5,131C 136.875,133.07 134.875,132.57 133.5,129.5 Z"/></g>
<g><path style="opacity:1" fill="#fde655" d="M 137.5,121.5 C 139.137,123.316 140.637,125.316 142,127.5C 142.749,128.635 142.583,129.635 141.5,130.5C 139.347,127.86 138.013,124.86 137.5,121.5 Z"/></g>
<g><path style="opacity:1" fill="#ecd23c" d="M 111.5,137.5 C 109.901,137.768 108.568,137.434 107.5,136.5C 107.33,135.178 107.663,134.011 108.5,133C 107.687,131.115 106.353,130.449 104.5,131C 105.406,132.699 105.739,134.533 105.5,136.5C 100.356,136.603 99.6896,135.437 103.5,133C 102.274,131.365 100.941,129.865 99.5,128.5C 99.9214,130.08 99.2547,131.58 97.5,133C 98.943,135.078 98.2763,135.911 95.5,135.5C 96.2086,128.855 95.0419,128.188 92,133.5C 91.4304,130.156 90.2638,129.823 88.5,132.5C 87.9335,129.057 89.1002,126.057 92,123.5C 92.2492,124.624 92.7492,125.624 93.5,126.5C 95.1012,125.835 96.6012,125.501 98,125.5C 100.99,126.974 104.157,127.974 107.5,128.5C 109.586,126.977 111.252,127.31 112.5,129.5C 111.397,129.998 110.397,130.331 109.5,130.5C 112.234,132.357 112.901,134.691 111.5,137.5 Z"/></g>
<g><path style="opacity:1" fill="#efc735" d="M 129.5,127.5 C 129.813,130.247 129.48,132.914 128.5,135.5C 126.694,136.859 125.194,136.525 124,134.5C 123.83,132.285 123.163,130.285 122,128.5C 121.821,131.553 121.321,134.553 120.5,137.5C 119.692,135.577 119.192,133.577 119,131.5C 118.583,130.244 117.75,129.577 116.5,129.5C 118.996,127.676 121.996,126.676 125.5,126.5C 126.849,126.846 128.183,127.179 129.5,127.5 Z"/></g>
<g><path style="opacity:1" fill="#e22011" d="M 133.5,118.5 C 134.833,118.5 136.167,118.5 137.5,118.5C 137.5,119.5 137.5,120.5 137.5,121.5C 135.5,121.833 133.5,122.167 131.5,122.5C 131.077,124.781 131.744,126.448 133.5,127.5C 133.5,128.167 133.5,128.833 133.5,129.5C 133.5,130.833 133.5,132.167 133.5,133.5C 135.483,133.157 136.817,133.824 137.5,135.5C 126.728,141.207 115.394,142.873 103.5,140.5C 102.909,139.849 102.243,139.182 101.5,138.5C 103.495,137.705 105.495,137.039 107.5,136.5C 108.568,137.434 109.901,137.768 111.5,137.5C 112.496,137.586 113.329,137.252 114,136.5C 114.402,135.128 114.902,133.795 115.5,132.5C 112.771,130.633 113.104,129.633 116.5,129.5C 117.75,129.577 118.583,130.244 119,131.5C 119.192,133.577 119.692,135.577 120.5,137.5C 121.321,134.553 121.821,131.553 122,128.5C 123.163,130.285 123.83,132.285 124,134.5C 125.194,136.525 126.694,136.859 128.5,135.5C 129.48,132.914 129.813,130.247 129.5,127.5C 129.5,126.5 129.5,125.5 129.5,124.5C 125.682,124.414 122.016,125.081 118.5,126.5C 112.853,125.811 107.186,125.311 101.5,125C 111.367,125.192 121.034,124.026 130.5,121.5C 131.77,120.712 132.77,119.712 133.5,118.5 Z"/></g>
</svg>
