<?xml version="1.0" encoding="UTF-8"?>
<!DOCTYPE svg PUBLIC "-//W3C//DTD SVG 1.1//EN" "http://www.w3.org/Graphics/SVG/1.1/DTD/svg11.dtd">
<svg xmlns="http://www.w3.org/2000/svg" version="1.1" width="353px" height="195px" style="shape-rendering:geometricPrecision; text-rendering:geometricPrecision; image-rendering:optimizeQuality; fill-rule:evenodd; clip-rule:evenodd" xmlns:xlink="http://www.w3.org/1999/xlink">
<g><path style="opacity:1" fill="#ff5858" d="M -0.5,-0.5 C 117.167,-0.5 234.833,-0.5 352.5,-0.5C 352.5,64.5 352.5,129.5 352.5,194.5C 234.833,194.5 117.167,194.5 -0.5,194.5C -0.5,129.5 -0.5,64.5 -0.5,-0.5 Z"/></g>
<g><path style="opacity:1" fill="#ff9696" d="M 320.5,54.5 C 308.5,54.5 296.5,54.5 284.5,54.5C 284.5,56.8333 284.5,59.1667 284.5,61.5C 287.5,61.5 290.5,61.5 293.5,61.5C 293.5,69.5 293.5,77.5 293.5,85.5C 292.508,78.0182 292.175,70.3516 292.5,62.5C 289.5,62.5 286.5,62.5 283.5,62.5C 283.5,59.5 283.5,56.5 283.5,53.5C 296.011,53.1714 308.345,53.5048 320.5,54.5 Z"/></g>
<g><path style="opacity:1" fill="#ffa9a8" d="M 162.5,54.5 C 159.833,54.5 157.167,54.5 154.5,54.5C 154.5,64.8333 154.5,75.1667 154.5,85.5C 153.506,75.0131 153.172,64.3464 153.5,53.5C 156.713,53.19 159.713,53.5233 162.5,54.5 Z"/></g>
<g><path style="opacity:1" fill="#fff8f8" d="M 183.5,54.5 C 189.335,54.1236 195.002,54.7903 200.5,56.5C 199.726,59.3809 198.393,62.0476 196.5,64.5C 193.639,62.02 190.306,61.02 186.5,61.5C 186.33,62.8221 186.663,63.9887 187.5,65C 192.723,65.6951 197.223,67.8618 201,71.5C 202.943,78.1113 200.777,82.6113 194.5,85C 189.833,85.6667 185.167,85.6667 180.5,85C 175.497,82.2522 175.331,79.0856 180,75.5C 184.027,77.5585 188.193,77.8918 192.5,76.5C 189.046,74.5493 185.379,73.0493 181.5,72C 175.698,65.3817 176.365,59.5484 183.5,54.5 Z"/></g>
<g><path style="opacity:1" fill="#fff8f8" d="M 132.5,54.5 C 135.247,54.1866 137.914,54.52 140.5,55.5C 144.015,65.2296 147.682,74.8962 151.5,84.5C 148.572,85.4841 145.572,85.8174 142.5,85.5C 142.167,83.5 141.833,81.5 141.5,79.5C 138.482,79.3354 135.482,79.502 132.5,80C 131.74,81.4411 131.074,82.9411 130.5,84.5C 127.554,85.6548 124.554,85.8214 121.5,85C 125.088,74.8185 128.755,64.6518 132.5,54.5 Z"/></g>
<g><path style="opacity:1" fill="#fffefe" d="M 162.5,54.5 C 162.5,64.8333 162.5,75.1667 162.5,85.5C 159.833,85.5 157.167,85.5 154.5,85.5C 154.5,75.1667 154.5,64.8333 154.5,54.5C 157.167,54.5 159.833,54.5 162.5,54.5 Z"/></g>
<g><path style="opacity:1" fill="#fff8f8" d="M 213.5,54.5 C 216.247,54.1866 218.914,54.52 221.5,55.5C 225.476,65.4131 229.142,75.4131 232.5,85.5C 229.5,85.5 226.5,85.5 223.5,85.5C 223.528,83.4176 222.861,81.5843 221.5,80C 218.518,79.502 215.518,79.3354 212.5,79.5C 212.167,81.5 211.833,83.5 211.5,85.5C 208.428,85.8174 205.428,85.4841 202.5,84.5C 206.174,74.4764 209.84,64.4764 213.5,54.5 Z"/></g>
<g><path style="opacity:1" fill="#fffdfd" d="M 256.5,61.5 C 252.167,61.5 247.833,61.5 243.5,61.5C 243.5,63.1667 243.5,64.8333 243.5,66.5C 246.625,67.4794 249.958,67.8128 253.5,67.5C 253.5,69.5 253.5,71.5 253.5,73.5C 250.167,73.5 246.833,73.5 243.5,73.5C 243.5,77.5 243.5,81.5 243.5,85.5C 240.833,85.5 238.167,85.5 235.5,85.5C 235.5,75.1667 235.5,64.8333 235.5,54.5C 242.5,54.5 249.5,54.5 256.5,54.5C 256.5,56.8333 256.5,59.1667 256.5,61.5 Z"/></g>
<g><path style="opacity:1" fill="#fffefe" d="M 268.5,62.5 C 268.5,63.8333 268.5,65.1667 268.5,66.5C 272.167,66.5 275.833,66.5 279.5,66.5C 279.5,68.5 279.5,70.5 279.5,72.5C 275.629,72.185 271.962,72.5184 268.5,73.5C 268.5,74.8333 268.5,76.1667 268.5,77.5C 272.634,78.4849 276.968,78.8182 281.5,78.5C 281.5,80.8333 281.5,83.1667 281.5,85.5C 274.5,85.5 267.5,85.5 260.5,85.5C 260.5,75.1667 260.5,64.8333 260.5,54.5C 267.5,54.5 274.5,54.5 281.5,54.5C 281.5,56.8333 281.5,59.1667 281.5,61.5C 276.968,61.1818 272.634,61.5151 268.5,62.5 Z"/></g>
<g><path style="opacity:1" fill="#fffafa" d="M 320.5,54.5 C 321.771,58.6428 323.438,62.6428 325.5,66.5C 327.978,63.2108 329.644,59.5442 330.5,55.5C 333.784,54.343 337.118,54.1764 340.5,55C 337.113,61.6113 333.613,68.1113 330,74.5C 329.501,78.1516 329.335,81.8183 329.5,85.5C 326.833,85.5 324.167,85.5 321.5,85.5C 321.665,81.8183 321.499,78.1516 321,74.5C 317.922,68.0087 314.588,61.6754 311,55.5C 310.505,57.4727 310.338,59.4727 310.5,61.5C 307.5,61.5 304.5,61.5 301.5,61.5C 301.5,69.5 301.5,77.5 301.5,85.5C 298.833,85.5 296.167,85.5 293.5,85.5C 293.5,77.5 293.5,69.5 293.5,61.5C 290.5,61.5 287.5,61.5 284.5,61.5C 284.5,59.1667 284.5,56.8333 284.5,54.5C 296.5,54.5 308.5,54.5 320.5,54.5 Z"/></g>
<g><path style="opacity:1" fill="#ff9999" d="M 256.5,61.5 C 252.702,62.4834 248.702,62.8168 244.5,62.5C 244.5,63.8333 244.5,65.1667 244.5,66.5C 244.167,66.5 243.833,66.5 243.5,66.5C 243.5,64.8333 243.5,63.1667 243.5,61.5C 247.833,61.5 252.167,61.5 256.5,61.5 Z"/></g>
<g><path style="opacity:1" fill="#ffa6a6" d="M 268.5,62.5 C 272.634,61.5151 276.968,61.1818 281.5,61.5C 281.5,59.1667 281.5,56.8333 281.5,54.5C 274.5,54.5 267.5,54.5 260.5,54.5C 260.5,64.8333 260.5,75.1667 260.5,85.5C 259.506,75.0131 259.172,64.3464 259.5,53.5C 267.167,53.5 274.833,53.5 282.5,53.5C 282.5,56.5 282.5,59.5 282.5,62.5C 277.833,62.5 273.167,62.5 268.5,62.5 Z"/></g>
<g><path style="opacity:1" fill="#ff9595" d="M 310.5,61.5 C 308.052,62.4731 305.385,62.8064 302.5,62.5C 302.825,70.3516 302.492,78.0182 301.5,85.5C 301.5,77.5 301.5,69.5 301.5,61.5C 304.5,61.5 307.5,61.5 310.5,61.5 Z"/></g>
<g><path style="opacity:1" fill="#ffcdcd" d="M 243.5,66.5 C 243.833,66.5 244.167,66.5 244.5,66.5C 247.833,66.5 251.167,66.5 254.5,66.5C 254.5,68.8333 254.5,71.1667 254.5,73.5C 254.167,73.5 253.833,73.5 253.5,73.5C 253.5,71.5 253.5,69.5 253.5,67.5C 249.958,67.8128 246.625,67.4794 243.5,66.5 Z"/></g>
<g><path style="opacity:1" fill="#ff6b69" d="M 216.5,64.5 C 217.497,64.4701 218.164,64.9701 218.5,66C 219.322,68.4339 219.656,70.9339 219.5,73.5C 218.167,73.5 216.833,73.5 215.5,73.5C 215.508,70.4552 215.841,67.4552 216.5,64.5 Z"/></g>
<g><path style="opacity:1" fill="#ff6d6a" d="M 136.5,63.5 C 137.785,66.5885 138.451,69.9219 138.5,73.5C 137.167,73.5 135.833,73.5 134.5,73.5C 134.311,69.963 134.977,66.6297 136.5,63.5 Z"/></g>
<g><path style="opacity:1" fill="#ffb9b8" d="M 279.5,66.5 C 280.468,68.6074 280.802,70.9407 280.5,73.5C 276.5,73.5 272.5,73.5 268.5,73.5C 271.962,72.5184 275.629,72.185 279.5,72.5C 279.5,70.5 279.5,68.5 279.5,66.5 Z"/></g>
<g><path style="opacity:1" fill="#ff9191" d="M 253.5,73.5 C 253.833,73.5 254.167,73.5 254.5,73.5C 251.375,74.4794 248.042,74.8128 244.5,74.5C 244.815,78.3714 244.482,82.0381 243.5,85.5C 243.5,81.5 243.5,77.5 243.5,73.5C 246.833,73.5 250.167,73.5 253.5,73.5 Z"/></g>
<g><path style="opacity:1" fill="#ffb7b7" d="M 268.5,77.5 C 273.167,77.5 277.833,77.5 282.5,77.5C 282.806,80.3854 282.473,83.0521 281.5,85.5C 281.5,83.1667 281.5,80.8333 281.5,78.5C 276.968,78.8182 272.634,78.4849 268.5,77.5 Z"/></g>
<g><path style="opacity:1" fill="#fff8f8" d="M 188.5,99.5 C 191.5,99.5 194.5,99.5 197.5,99.5C 197.334,106.175 197.5,112.842 198,119.5C 201.675,124.93 205.008,124.596 208,118.5C 208.5,112.175 208.666,105.842 208.5,99.5C 211.167,99.5 213.833,99.5 216.5,99.5C 216.906,107.917 216.406,116.251 215,124.5C 210.116,130.22 203.95,132.053 196.5,130C 192.942,128.108 190.442,125.275 189,121.5C 188.5,114.174 188.334,106.841 188.5,99.5 Z"/></g>
<g><path style="opacity:1" fill="#fff6f6" d="M 230.5,98.5 C 235.486,98.8301 240.153,100.163 244.5,102.5C 243.627,104.413 242.627,106.247 241.5,108C 237.83,107.841 234.163,107.341 230.5,106.5C 230.281,107.675 230.614,108.675 231.5,109.5C 235.934,111.029 240.101,113.029 244,115.5C 246.402,127.767 241.235,132.933 228.5,131C 225.904,129.864 223.237,129.031 220.5,128.5C 220.263,124.973 221.597,122.306 224.5,120.5C 227.859,122.507 231.525,123.507 235.5,123.5C 235.719,122.325 235.386,121.325 234.5,120.5C 230.713,119.293 227.046,117.793 223.5,116C 219.053,107.266 221.387,101.433 230.5,98.5 Z"/></g>
<g><path style="opacity:1" fill="#fff8f8" d="M 257.5,99.5 C 261.936,99.2101 266.27,99.7101 270.5,101C 272.019,102.351 273.352,103.851 274.5,105.5C 272.5,107.327 270.333,108.994 268,110.5C 264.333,105.167 260.667,105.167 257,110.5C 255.631,115.437 256.797,119.604 260.5,123C 261.833,123.667 263.167,123.667 264.5,123C 268.018,118.722 271.351,119.056 274.5,124C 270.421,130.069 264.754,132.069 257.5,130C 247.764,124.122 245.264,115.956 250,105.5C 252.134,102.847 254.634,100.847 257.5,99.5 Z"/></g>
<g><path style="opacity:1" fill="#ffeaea" d="M 50.5,29.5 C 74.9112,27.0982 91.0779,37.4316 99,60.5C 99.7881,67.5564 99.4548,74.5564 98,81.5C 93.3667,90.1468 88.7001,98.8135 84,107.5C 81.2392,113.879 80.0725,120.546 80.5,127.5C 75.8333,127.5 71.1667,127.5 66.5,127.5C 66.335,124.15 66.5017,120.817 67,117.5C 69.804,115.044 72.1374,112.377 74,109.5C 75.5,109.667 76.3333,110.5 76.5,112C 73.8797,113.817 71.3797,115.984 69,118.5C 68.5034,120.81 68.3367,123.143 68.5,125.5C 71.8333,125.5 75.1667,125.5 78.5,125.5C 78.6592,117.881 80.1592,110.548 83,103.5C 89.5182,95.4638 94.1848,86.4638 97,76.5C 98.7431,54.49 89.2431,39.6567 68.5,32C 65.5184,31.502 62.5184,31.3354 59.5,31.5C 59.1493,37.2617 59.6493,42.9284 61,48.5C 67.1471,54.8178 73.3138,60.8178 79.5,66.5C 78.1795,76.0067 78.1795,85.5067 79.5,95C 73.6347,100.2 68.468,106.033 64,112.5C 63.5007,117.489 63.3341,122.489 63.5,127.5C 61.712,127.785 60.0453,127.452 58.5,126.5C 59.325,125.614 60.325,125.281 61.5,125.5C 61.5172,119.773 61.3506,114.107 61,108.5C 67.7553,104.747 72.7553,99.4135 76,92.5C 76.6667,84.5 76.6667,76.5 76,68.5C 70.6667,60.5 64,53.8333 56,48.5C 57.2791,43.0632 57.7791,37.3965 57.5,31.5C 38.6265,32.6907 26.4599,42.3574 21,60.5C 20.1994,67.8892 20.5328,75.2225 22,82.5C 26.9342,90.7036 31.6009,99.037 36,107.5C 37.9512,113.346 38.7845,119.346 38.5,125.5C 40.5,125.5 42.5,125.5 44.5,125.5C 44.8288,118.759 44.3288,112.092 43,105.5C 41.3333,103.833 39.6667,102.167 38,100.5C 39.6096,90.8644 36.9429,82.8644 30,76.5C 29.7053,68.1415 29.2053,59.8082 28.5,51.5C 30.9484,51.0101 32.615,51.8434 33.5,54C 32.2778,57.6861 31.6111,61.5194 31.5,65.5C 31.6667,68.8333 31.8333,72.1667 32,75.5C 33.9606,78.4628 36.294,81.1294 39,83.5C 39.3333,88.8333 39.6667,94.1667 40,99.5C 42.6225,102.469 45.4559,104.969 48.5,107C 48.3699,108.059 47.8699,108.892 47,109.5C 46.5005,115.491 46.3338,121.491 46.5,127.5C 43.1667,127.5 39.8333,127.5 36.5,127.5C 36.839,122.07 36.339,116.736 35,111.5C 31.7175,102.935 27.3842,94.9353 22,87.5C 13.396,65.3121 18.896,47.4788 38.5,34C 42.3011,31.5837 46.3011,30.0837 50.5,29.5 Z"/></g>
<g><path style="opacity:1" fill="#ffe0df" d="M 52.5,65.5 C 54.288,65.2148 55.9547,65.5481 57.5,66.5C 60.484,69.9846 63.6507,73.318 67,76.5C 67.0011,81.8471 67.8345,87.0138 69.5,92C 68.615,94.1566 66.9484,94.9899 64.5,94.5C 65.4591,88.8615 65.6258,83.1949 65,77.5C 62.8333,75.3333 60.6667,73.1667 58.5,71C 54.2071,69.7984 50.7071,70.9651 48,74.5C 47.3333,81.1667 47.3333,87.8333 48,94.5C 51.2881,98.1325 54.7881,101.299 58.5,104C 57.5475,111.79 57.2141,119.623 57.5,127.5C 55.076,127.808 52.7427,127.474 50.5,126.5C 51.6888,125.571 53.0222,125.238 54.5,125.5C 54.7438,118.3 54.4105,111.134 53.5,104C 51.4124,100.906 48.9124,98.0723 46,95.5C 45.3333,88.1667 45.3333,80.8333 46,73.5C 48.7821,71.2295 50.9488,68.5628 52.5,65.5 Z"/></g>
<g><path style="opacity:1" fill="#ffe0e0" d="M 73.5,38.5 C 74.8333,38.5 76.1667,38.5 77.5,38.5C 76.6324,42.8076 76.4657,47.141 77,51.5C 81.6667,56.1667 86.3333,60.8333 91,65.5C 91.2355,71.038 91.7355,76.538 92.5,82C 90.8333,85.3333 89.1667,85.3333 87.5,82C 88.5969,76.5401 88.7636,71.0401 88,65.5C 83.6667,61.1667 79.3333,56.8333 75,52.5C 74.9615,48.4188 74.1281,44.5854 72.5,41C 72.7432,40.0979 73.0766,39.2646 73.5,38.5 Z"/></g>
<g><path style="opacity:1" fill="#ffe8e8" d="M 45.5,36.5 C 49.5115,36.6303 50.6782,38.2969 49,41.5C 48.6667,44.8333 48.3333,48.1667 48,51.5C 40.209,57.1056 38.3756,64.2723 42.5,73C 42.3333,74.5 41.5,75.3333 40,75.5C 38.2676,75.2664 37.4342,74.2664 37.5,72.5C 38.2286,67.53 38.7286,62.53 39,57.5C 41.3333,55.1667 43.6667,52.8333 46,50.5C 46.9542,46.41 46.4542,42.5767 44.5,39C 44.7432,38.0979 45.0766,37.2646 45.5,36.5 Z"/></g>
<g><path style="opacity:1" fill="#ffe7e7" d="M 76.5,141.5 C 67.5,141.5 58.5,141.5 49.5,141.5C 49.5,143.167 49.5,144.833 49.5,146.5C 54.1667,146.5 58.8333,146.5 63.5,146.5C 63.5,149.167 63.5,151.833 63.5,154.5C 60.1401,154.616 56.8067,154.949 53.5,155.5C 53.5,154.167 53.5,152.833 53.5,151.5C 56.4824,151.963 59.4824,152.296 62.5,152.5C 62.5,151.167 62.5,149.833 62.5,148.5C 58.03,147.514 53.3633,147.181 48.5,147.5C 48.5,145.167 48.5,142.833 48.5,140.5C 57.3494,140.826 66.0161,140.493 74.5,139.5C 74.5,137.833 74.5,136.167 74.5,134.5C 63.1347,134.209 51.8014,134.543 40.5,135.5C 37.9185,135.253 37.0851,133.92 38,131.5C 50.7215,131.405 63.5548,131.405 76.5,131.5C 76.5,134.833 76.5,138.167 76.5,141.5 Z"/></g>
<g><path style="opacity:1" fill="#ff9898" d="M 76.5,141.5 C 68.0161,142.493 59.3494,142.826 50.5,142.5C 50.5,143.5 50.5,144.5 50.5,145.5C 55.1667,145.5 59.8333,145.5 64.5,145.5C 64.81,148.713 64.4767,151.713 63.5,154.5C 63.5,151.833 63.5,149.167 63.5,146.5C 58.8333,146.5 54.1667,146.5 49.5,146.5C 49.5,144.833 49.5,143.167 49.5,141.5C 58.5,141.5 67.5,141.5 76.5,141.5 Z"/></g>
<g><path style="opacity:1" fill="#ffcdcd" d="M 74.5,139.5 C 66.0161,140.493 57.3494,140.826 48.5,140.5C 48.5,142.833 48.5,145.167 48.5,147.5C 53.3633,147.181 58.03,147.514 62.5,148.5C 57.5,148.5 52.5,148.5 47.5,148.5C 47.5,145.5 47.5,142.5 47.5,139.5C 56.5,139.5 65.5,139.5 74.5,139.5 Z"/></g>
</svg>
